<?xml version="1.0" standalone="no"?>
<!DOCTYPE svg PUBLIC "-//W3C//DTD SVG 20010904//EN"
 "http://www.w3.org/TR/2001/REC-SVG-20010904/DTD/svg10.dtd">
<svg version="1.0" xmlns="http://www.w3.org/2000/svg"
 width="384.000000pt" height="384.000000pt" viewBox="0 0 384.000000 384.000000"
 preserveAspectRatio="xMidYMid meet">
<metadata>
Created by potrace 1.11, written by Peter Selinger 2001-2013
</metadata>
<g transform="translate(0.000000,384.000000) scale(0.100000,-0.100000)"
fill="#000000" stroke="none">
<path d="M0 3830 c0 -5 7 -10 15 -10 8 0 48 -11 90 -24 41 -13 75 -20 75 -15
0 5 -4 9 -8 9 -5 0 -22 11 -38 25 -23 20 -40 25 -81 25 -29 0 -53 -4 -53 -10z"/>
<path d="M200 3823 c0 -10 7 -121 15 -248 8 -126 20 -318 25 -425 13 -258 29
-509 36 -538 3 -17 1 -22 -8 -16 -7 5 -28 7 -47 5 -20 -2 -37 3 -43 11 -7 9
-8 8 -6 -7 2 -15 12 -21 38 -23 61 -6 67 -18 75 -165 8 -146 28 -204 82 -246
l28 -22 -25 6 -25 6 25 -20 c60 -48 62 -51 55 -89 -4 -20 -13 -49 -21 -64 -19
-36 -18 -54 7 -149 14 -56 19 -95 14 -125 -6 -44 9 -183 26 -241 12 -38 71
-93 102 -94 21 -1 18 -2 -20 -14 -10 -3 -9 -13 3 -39 19 -39 13 -66 -14 -66
-21 0 -51 30 -76 75 l-17 30 6 -36 c7 -48 -2 -69 -31 -69 -25 0 -31 9 -15 26
14 13 15 152 2 193 -14 44 -34 286 -28 321 8 40 -5 55 -34 39 -16 -8 -62 -12
-135 -12 -92 1 -118 5 -153 22 l-41 21 0 -107 0 -108 107 5 c60 3 114 9 120
13 21 13 15 27 -12 27 -25 0 -36 19 -12 21 6 1 -1 5 -18 8 l-30 8 42 12 c23 6
48 17 55 25 27 26 55 36 65 23 6 -6 15 -100 22 -207 17 -284 22 -340 31 -335
13 8 53 -54 46 -71 -8 -22 3 -38 17 -25 15 12 93 26 297 51 91 11 225 32 298
46 128 25 184 27 132 6 -44 -17 -475 -83 -647 -98 -40 -4 -77 -12 -81 -18 -5
-6 -14 -34 -21 -63 -9 -39 -10 -57 -1 -73 11 -20 10 -21 -9 -10 -21 10 -21 9
-16 -82 3 -51 9 -122 12 -158 4 -36 6 -70 5 -76 -2 -11 84 -24 161 -24 48 0
308 115 435 193 97 59 123 87 169 183 18 40 40 78 48 84 8 7 15 29 16 49 l1
36 12 -40 c8 -23 15 -34 18 -25 6 19 58 -69 58 -99 0 -36 26 -86 54 -104 20
-14 24 -22 17 -35 -8 -15 -2 -21 34 -39 24 -12 45 -17 47 -13 2 5 25 -2 52
-16 27 -14 55 -23 63 -20 8 3 11 2 8 -4 -3 -5 12 -14 34 -20 22 -6 43 -14 46
-19 3 -5 13 -7 23 -4 10 2 31 -6 46 -18 37 -29 151 -69 196 -69 63 0 60 15 -4
16 -63 1 -152 34 -113 42 10 2 33 -3 52 -12 41 -20 109 -21 124 -2 10 12 8 14
-11 10 -13 -3 9 7 47 21 102 38 146 63 217 124 l63 55 -63 -65 c-34 -36 -59
-68 -55 -73 4 -4 1 -4 -8 -1 -9 3 -24 -5 -37 -20 -12 -14 -19 -25 -14 -25 10
0 54 31 78 55 11 11 51 48 90 83 46 40 74 74 80 95 6 17 14 32 19 32 6 0 15 4
22 8 9 5 10 0 3 -23 -5 -16 -5 -30 -1 -30 14 0 41 84 41 126 0 29 8 51 28 77
51 68 65 61 122 -59 44 -91 43 -90 170 -118 36 -7 102 -24 148 -37 83 -22 83
-22 140 -4 31 11 86 22 122 26 l65 6 -67 1 c-42 1 -83 -4 -107 -14 -22 -8 -50
-14 -63 -12 -40 8 44 38 104 38 61 0 93 14 56 23 -41 11 -123 7 -174 -8 -70
-21 -97 -19 -124 10 -22 24 -25 24 -31 8 -12 -32 -33 66 -32 150 0 70 -1 76
-14 60 -11 -13 -11 -11 1 9 9 15 16 45 16 68 0 38 -1 40 -32 41 -28 2 -29 2
-8 6 14 3 29 9 35 14 6 6 -2 7 -22 3 -25 -5 -33 -2 -42 14 -9 18 -7 21 24 26
19 4 37 11 40 16 4 6 -7 7 -27 4 -60 -10 -60 -11 -54 -57 3 -24 -3 -11 -14 33
-11 41 -27 96 -36 122 -11 32 -13 58 -8 80 l8 33 7 -40 c4 -22 11 -59 15 -83
5 -30 10 -40 16 -30 5 8 6 -1 2 -24 -4 -26 -3 -38 6 -38 7 0 9 8 5 20 -5 17
-2 20 22 21 15 0 37 4 48 9 16 7 11 9 -21 9 -26 1 -44 6 -47 15 -8 19 1 26 33
26 15 0 33 7 40 15 10 12 7 13 -22 5 -49 -15 -78 -12 -78 5 0 17 38 35 75 35
13 0 26 3 28 8 3 4 -16 5 -41 3 l-47 -3 25 19 c14 10 39 25 55 32 l30 14 -25
7 c-18 5 -21 9 -10 13 22 8 69 18 115 24 45 6 63 17 44 28 -8 6 -10 4 -4 -5 6
-10 4 -12 -9 -7 -10 4 -32 7 -49 8 l-32 1 33 10 c46 15 40 24 -16 20 -35 -3
-52 1 -61 12 -12 14 -8 16 31 16 24 0 49 5 55 11 6 6 9 35 6 72 -5 61 -4 63
31 96 20 19 36 39 36 44 0 5 -9 -1 -20 -14 l-20 -24 6 50 c3 28 7 68 10 90 4
35 3 38 -8 22 -11 -15 -13 -6 -13 57 0 60 -4 78 -20 97 -11 12 -14 19 -7 15
15 -9 15 -5 2 28 -5 14 -6 26 -1 26 5 0 11 -7 15 -15 3 -8 10 -15 16 -15 6 0
5 7 -2 20 -10 16 -10 24 0 41 21 33 6 116 -24 136 -23 15 -26 14 -49 -7 l-25
-23 0 26 c0 38 19 74 43 81 18 4 18 6 3 21 -9 9 -23 29 -30 43 -8 15 -33 45
-57 67 -40 37 -41 38 -27 10 10 -19 12 -37 7 -50 -12 -32 -10 -35 17 -25 38
15 44 13 44 -19 0 -22 -9 -34 -40 -55 -42 -28 -60 -32 -60 -16 0 6 15 17 33
25 27 12 28 14 10 15 -21 0 -23 5 -25 63 -1 34 -1 88 0 119 2 35 -3 68 -11 85
-14 25 -14 24 -11 -28 3 -34 1 -47 -4 -35 -8 19 -9 19 -17 0 -10 -23 -20 -324
-11 -358 5 -19 14 -24 51 -29 25 -2 54 -12 64 -21 40 -37 53 -177 26 -276 -8
-30 -22 -93 -30 -140 -19 -106 -24 -117 -82 -190 -54 -68 -60 -63 -44 40 6 38
11 98 11 134 0 36 5 68 10 71 7 4 8 -3 4 -20 -7 -27 -7 -27 19 -10 28 18 47
61 47 106 0 20 -11 38 -35 60 -22 21 -38 46 -44 73 -9 40 -9 40 -10 -24 -1
-36 -6 -103 -12 -150 -6 -47 -14 -157 -18 -245 -6 -139 -8 -155 -18 -125 -11
34 -11 34 -12 -25 -2 -100 -12 -164 -26 -159 -7 3 -20 32 -30 65 -22 71 -32
82 -27 28 3 -23 0 -39 -6 -39 -11 0 -19 32 -24 95 -2 17 -8 30 -15 30 -6 0
-15 4 -20 9 -5 5 -3 6 5 2 17 -10 15 9 -3 24 -13 11 -14 10 -8 -6 6 -17 5 -18
-11 -5 -14 12 -14 8 4 -21 19 -33 20 -41 9 -78 -8 -27 -15 -37 -21 -28 -5 9
-8 3 -8 -16 0 -37 -21 -106 -32 -106 -4 0 -8 -11 -8 -24 0 -13 -15 -49 -32
-80 -26 -45 -34 -53 -40 -39 -11 30 -8 76 7 103 26 45 19 74 -29 118 -23 22
-52 43 -63 46 -11 4 -39 29 -62 56 -23 28 -48 50 -55 50 -7 0 -21 10 -32 21
-19 22 -19 22 3 10 37 -19 36 6 -1 28 -29 18 -46 39 -46 57 0 2 18 15 39 30
37 24 41 25 68 10 15 -8 50 -33 77 -55 46 -39 74 -45 62 -15 -10 26 12 14 68
-37 31 -28 56 -46 56 -40 0 5 -7 16 -16 23 -9 7 -26 24 -38 37 -65 73 -83 90
-89 85 -3 -3 -3 3 0 14 7 30 -14 62 -53 78 -19 8 -34 16 -34 17 0 2 17 2 38 0
36 -3 36 -2 -10 11 -60 18 -134 61 -152 89 -22 33 -76 173 -75 194 0 10 8 -7
18 -37 37 -116 77 -168 161 -212 39 -20 59 -23 155 -23 135 0 185 17 245 81
68 74 110 194 110 317 0 155 -72 197 -335 197 -145 0 -234 -14 -280 -44 -47
-31 -85 -95 -86 -145 -1 -44 -1 -45 -10 -16 -15 49 -2 87 44 132 60 58 96 73
211 87 l101 12 -130 7 c-71 4 -175 11 -230 17 -55 5 -208 9 -340 9 -239 -1
-240 -1 -157 -15 108 -18 169 -45 222 -99 l43 -43 -10 -89 c-6 -48 -9 -89 -7
-91 1 -2 7 14 14 35 7 21 17 43 22 48 16 15 1 -29 -43 -129 -21 -49 -37 -91
-35 -93 2 -3 16 15 31 39 15 24 24 34 20 23 -5 -11 -21 -60 -38 -110 -47 -144
-42 -135 -79 -128 -44 8 -44 8 -22 40 10 15 25 41 32 57 11 27 9 26 -33 -13
-26 -23 -60 -49 -78 -56 -25 -11 -28 -14 -11 -15 38 0 36 -38 -5 -117 -21 -40
-34 -70 -30 -67 5 3 9 -4 9 -16 0 -19 6 -17 55 20 l55 41 35 -34 c19 -19 35
-38 35 -44 0 -15 -129 -147 -137 -140 -3 4 0 13 7 22 7 9 10 18 7 21 -5 6 -48
-13 -57 -25 -8 -10 -64 -49 -70 -48 -6 1 -90 -54 -90 -59 0 -2 11 1 25 6 37
14 31 6 -25 -34 -54 -39 -64 -38 -27 3 12 14 14 19 5 12 -16 -12 -18 -11 -18
3 0 11 -5 14 -12 10 -8 -5 -9 0 -6 14 4 14 2 20 -4 16 -7 -5 -9 2 -4 21 7 26
6 27 -10 14 -16 -13 -16 -12 -5 10 15 27 22 71 11 71 -4 0 -15 -9 -25 -20 -10
-11 -21 -17 -26 -15 -11 7 -21 -12 -35 -70 -7 -30 -13 -40 -13 -25 -1 39 19
101 35 107 16 6 19 23 4 23 -18 0 -50 -63 -50 -97 0 -18 -4 -33 -10 -33 -5 0
-10 9 -10 19 0 11 -5 23 -11 27 -6 3 -8 17 -4 31 3 14 1 60 -6 103 -14 99 3
155 65 214 34 33 36 36 11 21 -16 -10 -42 -29 -57 -43 l-27 -25 -15 54 c-15
52 -36 198 -36 248 0 17 9 6 33 -40 57 -114 155 -163 322 -163 79 0 96 3 140
27 28 15 63 44 79 63 73 92 116 231 102 328 -9 55 -55 114 -112 141 -52 25
-193 46 -314 48 -229 3 -274 -45 -268 -281 3 -114 2 -118 -25 -156 -22 -32
-27 -47 -23 -79 5 -41 28 -69 34 -42 2 8 7 15 11 15 7 0 21 -172 21 -262 l0
-38 -49 51 c-41 42 -53 50 -73 44 -12 -4 -26 -13 -30 -19 -5 -6 -8 -2 -8 10 0
12 6 27 13 33 11 8 13 58 10 243 -5 229 -4 234 19 278 13 24 36 51 52 60 18 9
41 38 57 68 27 53 25 70 -5 30 l-17 -23 7 25 c4 14 11 41 15 60 l7 35 1 -35
c1 -28 4 -32 11 -18 12 19 1 190 -11 183 -4 -3 -5 4 -2 15 8 32 -7 23 -22 -12
-21 -49 -18 -11 4 47 10 28 22 79 26 115 8 77 21 111 78 205 46 79 137 203
142 195 1 -3 11 2 21 11 27 23 46 28 69 16 19 -10 19 -10 0 -17 -19 -7 -18 -8
7 -20 21 -10 33 -10 56 -1 21 9 45 9 93 2 85 -14 99 -14 79 0 -12 8 -10 9 10
5 14 -3 45 -6 70 -7 39 -1 42 -2 20 -10 -23 -8 -22 -8 5 -3 82 14 123 16 129
5 4 -6 15 -11 24 -10 15 0 14 1 -2 8 -10 4 27 7 82 8 78 0 107 4 127 17 15 10
32 15 39 13 6 -3 31 8 54 24 43 29 98 60 107 59 3 0 8 1 13 1 4 1 31 0 61 -1
57 -2 63 -5 114 -58 24 -26 38 -32 62 -30 17 2 29 8 28 15 -2 7 9 20 23 29 19
13 30 15 47 6 12 -6 31 -13 42 -15 18 -4 18 -5 -5 -14 -21 -9 -17 -11 35 -17
33 -4 74 -14 90 -22 17 -8 22 -12 12 -9 -10 3 -37 8 -60 11 l-42 6 50 -32 c72
-46 78 -56 16 -25 -63 31 -60 20 6 -24 43 -29 45 -44 2 -21 -30 16 -22 3 8
-15 27 -16 24 -16 -25 -1 -21 7 -22 5 -16 -21 9 -36 32 -73 58 -95 12 -10 18
-18 14 -18 -4 0 -24 15 -45 33 l-37 32 24 -40 23 -40 -27 25 c-15 14 -36 41
-47 60 -20 39 -24 32 -10 -18 6 -18 6 -30 1 -27 -13 8 -22 62 -15 85 7 21 7
21 21 3 8 -10 5 2 -7 27 -26 55 -32 62 -25 30 3 -14 2 -41 -3 -60 l-9 -35 -1
38 c-1 20 -4 37 -8 37 -5 0 -9 10 -9 23 -4 53 -18 128 -25 133 -11 6 -43 -17
-47 -33 -2 -14 9 -17 24 -5 5 4 -1 -3 -15 -16 -17 -17 -31 -22 -47 -18 -23 6
-23 5 9 -41 17 -27 34 -50 37 -53 15 -13 124 -216 137 -253 19 -54 27 -62 19
-17 l-6 35 14 -30 15 -30 -1 55 c0 30 -5 63 -10 73 -13 26 9 21 26 -5 8 -13
20 -50 27 -83 6 -33 17 -65 23 -71 6 -6 44 -22 84 -35 53 -17 79 -31 93 -51
23 -32 23 -33 -22 -14 -33 13 -159 29 -159 20 0 -3 10 -9 23 -14 l22 -9 -22 0
c-37 -1 -31 -45 7 -61 36 -15 52 -35 21 -26 -11 3 -31 8 -43 11 -22 5 -21 5 2
-9 14 -9 35 -15 46 -16 12 0 32 -8 45 -18 71 -54 97 -62 187 -60 48 1 68 3 45
5 -57 5 -70 23 -53 72 9 30 10 43 0 60 -11 21 -10 22 9 12 32 -18 82 -7 97 20
7 13 13 19 14 13 0 -6 17 -19 38 -29 39 -20 124 -22 152 -3 12 7 10 8 -6 5
-21 -4 -21 -4 3 39 24 43 43 63 43 47 0 -5 -5 -14 -12 -21 -6 -6 -12 -30 -13
-54 -2 -47 -14 -151 -20 -184 -4 -17 -10 -20 -36 -16 -29 4 -30 6 -24 38 7 42
0 43 -20 4 -20 -38 -19 -60 3 -60 14 0 15 -2 2 -10 -8 -5 -44 -10 -80 -11 -38
-1 -9 -5 70 -9 152 -9 184 -1 201 50 6 16 17 31 25 34 10 4 9 -6 -6 -47 -11
-29 -20 -62 -20 -74 0 -13 -14 -33 -35 -50 -34 -27 -44 -43 -27 -43 5 0 18 9
30 20 l22 21 0 -25 c0 -14 -5 -37 -11 -53 -8 -23 -8 -26 3 -15 7 7 13 35 13
62 0 28 3 50 6 50 4 0 14 27 23 61 21 73 31 73 15 0 -6 -28 -8 -57 -6 -64 3
-7 6 -5 6 6 1 9 9 32 19 51 l18 34 12 -42 c13 -46 19 -157 9 -173 -4 -7 9 -7
42 -1 27 5 58 5 72 0 18 -7 9 -10 -44 -14 -50 -4 -77 -12 -105 -31 -37 -26
-73 -30 -80 -9 -2 7 11 19 30 27 18 8 28 14 21 15 -25 0 -61 -23 -72 -46 -6
-13 -18 -24 -26 -24 -9 0 -13 5 -10 10 13 20 -12 9 -33 -15 -12 -13 -33 -27
-47 -31 -14 -3 -25 -11 -25 -16 0 -6 9 -8 20 -5 23 6 24 3 9 -25 -18 -34 1
-39 100 -28 51 6 129 11 174 12 45 0 88 5 95 11 8 6 12 6 12 -2 0 -6 4 -11 9
-11 4 0 6 11 4 24 -4 17 5 35 32 65 40 44 30 53 -23 21 -37 -22 -102 -19 -128
7 -7 8 -20 11 -26 8 -7 -4 -4 1 6 9 15 12 44 16 128 16 l108 0 0 56 c0 52 -1
55 -17 43 -17 -13 -17 -13 0 7 9 11 17 29 17 39 0 18 -1 18 -15 -1 -19 -25
-19 -7 -1 28 13 25 13 29 -2 38 -16 9 -16 9 1 10 24 0 22 27 -3 35 -25 8 -25
16 0 48 17 21 20 40 20 120 0 95 0 95 -27 105 l-28 10 28 1 27 1 0 81 c0 79 0
80 -22 74 -43 -13 -117 -57 -123 -74 -4 -11 1 -9 17 6 25 22 98 56 106 49 2
-3 -17 -15 -44 -28 -48 -23 -90 -75 -81 -100 3 -8 9 -3 16 12 9 19 20 25 49
27 l37 2 -32 -15 c-20 -8 -40 -29 -53 -54 -28 -54 -26 -68 8 -64 l27 4 -25
-12 c-14 -7 -35 -20 -48 -29 -21 -15 -21 -17 -6 -48 13 -26 14 -35 4 -44 -10
-9 -11 -9 -6 3 4 8 -1 6 -11 -6 -10 -11 -32 -24 -48 -28 -22 -5 -26 -4 -15 4
24 17 -17 43 -57 36 -18 -2 -33 -1 -33 4 0 10 26 18 75 22 19 2 34 11 41 25 6
13 18 31 28 41 15 18 14 20 -24 35 -22 8 -40 22 -40 29 0 8 16 30 36 49 20 18
45 51 56 73 l20 39 -31 -22 c-34 -24 -81 -71 -122 -120 -17 -19 -36 -31 -50
-30 -22 0 -23 1 -5 12 53 34 66 50 66 78 0 28 -3 30 -32 29 -47 -3 -56 0 -33
10 19 8 18 9 -4 9 -16 1 -41 20 -73 54 l-49 52 5 69 c3 38 9 73 14 78 4 4 34
15 65 23 31 8 76 23 99 34 115 51 107 23 -11 -42 -83 -45 -83 -63 1 -22 60 30
113 77 134 118 17 32 30 35 39 6 4 -13 1 -27 -10 -39 -10 -11 -20 -34 -24 -52
l-7 -33 -17 30 -18 30 7 -35 c8 -43 7 -42 28 -34 9 4 25 23 36 43 10 21 26 44
36 52 12 10 9 -1 -10 -38 -15 -31 -38 -59 -54 -67 -38 -20 -53 -39 -43 -55 7
-11 11 -9 20 7 12 23 51 49 51 34 0 -5 -9 -19 -20 -32 -11 -13 -23 -35 -27
-49 -3 -14 -15 -42 -26 -61 -18 -29 -8 -23 61 39 45 40 85 77 88 82 3 5 18 9
35 9 16 0 29 4 29 10 0 5 -13 7 -32 3 -22 -4 -29 -3 -24 5 4 7 17 12 30 12 21
0 23 5 25 61 1 35 -3 67 -10 75 -8 10 -8 14 0 14 6 0 10 16 9 40 -1 22 -6 40
-12 40 -6 0 -5 5 2 12 29 29 3 35 -53 13 -17 -7 -16 -3 6 21 29 31 48 107 30
119 -6 3 -11 2 -11 -3 0 -5 -10 -12 -22 -15 l-23 -6 24 20 c13 10 29 19 37 19
7 0 16 5 20 11 5 9 -3 10 -29 5 -33 -6 -37 -4 -52 23 -8 17 -15 36 -15 44 0
18 -29 44 -55 49 -18 3 -17 6 10 21 26 16 27 17 5 11 -22 -6 -23 -5 -11 10 7
9 24 16 38 16 14 0 21 4 18 10 -3 6 -23 10 -44 10 -37 0 -39 -2 -44 -37 -10
-76 -23 -93 -65 -93 -21 0 -43 -5 -50 -12 -9 -9 -12 -9 -12 4 0 22 45 83 59
80 14 -3 7 12 -17 41 -11 12 -30 17 -69 17 -60 0 -63 -6 -38 -67 20 -48 19
-50 -9 -20 -26 29 -46 74 -27 63 6 -4 11 0 11 8 0 13 -13 16 -70 16 -79 0 -86
-9 -49 -61 14 -20 22 -51 25 -92 5 -61 5 -62 -11 -34 -9 16 -23 49 -30 74 -8
25 -29 61 -46 79 l-33 34 -125 0 c-121 0 -124 0 -107 -19 10 -10 13 -22 8 -25
-5 -3 -14 6 -20 19 -11 24 -16 25 -101 25 -62 0 -91 -4 -94 -12 -4 -10 -6 -10
-6 0 -1 7 -14 12 -31 12 -23 0 -28 -4 -23 -16 5 -13 7 -13 14 -2 7 10 9 9 9
-4 0 -24 -17 -23 -32 2 -12 18 -24 20 -127 20 l-114 0 19 -22 19 -22 -29 22
c-24 18 -42 22 -103 22 -56 0 -75 -4 -79 -15 -4 -8 -18 -15 -33 -15 -23 -1
-22 -3 16 -22 24 -11 40 -25 37 -30 -4 -6 2 -8 17 -3 17 4 20 3 10 -3 -16 -11
-1 -21 64 -42 22 -7 35 -15 28 -17 -6 -2 -35 6 -63 18 -77 33 -69 17 10 -20
46 -21 68 -36 63 -44 -3 -7 3 -4 14 6 19 17 20 16 43 -33 20 -43 22 -54 11
-76 l-12 -27 -33 34 c-45 45 -154 142 -175 153 -14 8 -15 7 -1 -10 19 -24 19
-60 0 -56 -8 2 -36 6 -62 9 -27 3 -51 9 -53 13 -3 5 4 6 15 3 26 -7 26 3 -1
17 -28 15 -81 22 -74 10 14 -22 -27 -8 -62 22 -32 27 -34 28 -14 5 29 -32 24
-34 -23 -6 -20 12 -36 19 -36 16 0 -10 72 -47 81 -42 5 4 9 2 9 -3 0 -10 44
-32 66 -32 9 0 23 -7 32 -16 15 -15 15 -16 -3 -11 -11 3 -36 9 -55 13 -19 3
-48 17 -65 29 -31 23 -89 55 -100 55 -17 0 84 -84 126 -106 27 -13 49 -26 49
-29 0 -8 -91 37 -135 66 -56 37 -136 77 -161 81 -32 5 -28 -16 4 -24 15 -4 39
-20 53 -34 l24 -27 -31 22 c-17 12 -57 26 -90 31 -32 5 -70 12 -84 15 -22 4
-21 3 5 -9 17 -9 35 -15 41 -16 7 0 15 -7 18 -16 5 -12 2 -15 -11 -9 -10 3
-31 9 -48 11 -26 5 -28 3 -15 -8 8 -7 16 -20 18 -28 2 -10 -6 -6 -24 10 -46
41 -6 -9 46 -57 l45 -43 -59 35 c-33 19 -64 35 -68 35 -4 0 -27 14 -50 30 -43
31 -69 40 -49 16 9 -11 2 -12 -41 -8 l-53 5 50 -42 c28 -23 76 -56 108 -72 31
-16 57 -31 57 -34 0 -9 -94 39 -141 71 -27 19 -65 34 -95 39 -53 8 -55 -3 -2
-15 l33 -8 -35 -1 c-19 0 -44 6 -54 14 -30 23 -42 18 -18 -7 l21 -23 -42 0
c-50 -1 -97 -12 -97 -23 0 -5 17 -13 38 -19 l37 -11 -35 4 c-23 4 -52 -2 -83
-16 -27 -12 -51 -20 -53 -17 -3 2 18 23 46 47 27 23 47 46 44 51 -3 5 0 9 5 9
6 0 11 4 11 9 0 6 -19 12 -42 14 l-43 4 44 1 c34 2 42 5 37 17 -3 10 1 16 12
16 9 1 -1 5 -23 9 l-40 7 35 2 c19 1 44 6 55 11 19 8 19 9 1 9 -11 1 -16 4
-12 8 3 4 -13 27 -36 51 l-43 45 45 -34 c25 -19 47 -37 48 -41 6 -13 34 -9
127 21 74 24 84 30 60 33 -25 3 -22 5 20 12 217 33 207 34 -562 35 -701 1
-743 0 -743 -16z m2900 -2 c-8 -5 -28 -11 -44 -15 -26 -6 -28 -5 -17 8 8 9 28
16 45 16 22 -1 27 -3 16 -9z m-390 -38 c0 -2 -10 -1 -21 2 -16 6 -20 4 -13 -6
6 -12 5 -12 -9 0 -27 21 -20 31 13 20 17 -6 30 -13 30 -16z m989 -36 c-2 -1
-13 -9 -24 -17 -19 -14 -19 -14 -6 3 7 9 18 17 24 17 6 0 8 -1 6 -3z m21 -32
c0 -6 -31 -57 -40 -65 -3 -3 -10 -14 -16 -26 -11 -19 -9 -20 26 -22 21 -2 41
2 44 7 4 6 -8 8 -31 4 -39 -6 -38 12 2 19 11 2 22 14 25 28 6 25 6 25 17 -6
10 -29 9 -34 -20 -62 -18 -16 -42 -35 -54 -41 -13 -7 -23 -16 -23 -22 0 -6 12
-1 27 10 36 29 41 18 9 -19 -14 -17 -26 -35 -26 -40 0 -5 -3 -17 -6 -27 -3
-10 3 -4 12 12 19 32 32 19 15 -14 -16 -30 -14 -46 3 -31 8 6 14 17 12 23 -1
7 -1 8 2 4 2 -5 15 2 28 14 30 28 32 7 2 -23 -13 -13 -22 -28 -20 -35 1 -7 -5
-9 -17 -6 -13 3 -21 -1 -25 -15 -4 -11 -12 -25 -19 -31 -10 -8 -12 -2 -9 24 6
49 -25 124 -54 131 -37 9 -46 27 -33 60 7 16 15 47 18 69 6 37 8 40 49 47 23
4 52 14 64 22 23 16 38 20 38 11z m-866 -81 c9 -8 16 -18 16 -20 0 -7 -38 15
-45 26 -10 16 12 12 29 -6z m443 -26 c-3 -8 -6 -5 -6 6 -1 11 2 17 5 13 3 -3
4 -12 1 -19z m-1442 -8 c10 -11 16 -20 13 -20 -3 0 -13 9 -23 20 -10 11 -16
20 -13 20 3 0 13 -9 23 -20z m161 -22 l29 -33 -32 29 c-31 28 -38 36 -30 36 2
0 16 -15 33 -32z m184 22 c8 -5 11 -10 5 -10 -5 0 -17 5 -25 10 -8 5 -10 10
-5 10 6 0 17 -5 25 -10z m1175 -88 c-6 -15 -8 -15 -15 3 -11 26 -12 79 -2 89
10 11 25 -72 17 -92z m-2178 72 c-3 -3 -12 -4 -19 -1 -8 3 -5 6 6 6 11 1 17
-2 13 -5z m-67 -20 c23 -9 39 -18 37 -20 -2 -3 -24 4 -48 15 -54 24 -45 27 11
5z m2021 -2 c-7 -2 -18 1 -23 6 -8 8 -4 9 13 5 13 -4 18 -8 10 -11z m-1391
-18 c0 -2 -9 0 -20 6 -11 6 -20 13 -20 16 0 2 9 0 20 -6 11 -6 20 -13 20 -16z
m166 10 c18 -14 18 -14 -6 -3 -31 14 -36 19 -24 19 6 0 19 -7 30 -16z m534 6
c18 -12 2 -12 -25 0 -13 6 -15 9 -5 9 8 0 22 -4 30 -9z m1065 0 c-3 -5 -12 -7
-20 -3 -21 7 -19 13 6 13 11 0 18 -4 14 -10z m-2182 -7 c-7 -2 -21 -2 -30 0
-10 3 -4 5 12 5 17 0 24 -2 18 -5z m2399 -15 c-7 -7 -12 -8 -12 -2 0 6 3 14 7
17 3 4 9 5 12 2 2 -3 -1 -11 -7 -17z m-614 6 c12 -4 22 -10 22 -15 0 -10 -45
-2 -70 12 -12 7 -11 8 5 9 11 0 30 -3 43 -6z m209 -31 c-3 -10 -5 -4 -5 12 0
17 2 24 5 18 2 -7 2 -21 0 -30z m173 32 c0 -2 -7 -23 -16 -45 -17 -42 -33 -53
-35 -22 0 11 -2 12 -6 4 -7 -18 -33 4 -33 28 0 12 12 21 38 28 46 12 52 13 52
7z m42 -37 c26 -26 31 -45 18 -67 -8 -13 -9 -12 -10 5 0 12 -9 33 -20 47 -33
41 -25 52 12 15z m-1012 8 c0 -2 -8 -10 -17 -17 -16 -13 -17 -12 -4 4 13 16
21 21 21 13z m175 -11 c-16 -8 -39 -14 -50 -14 -11 1 -2 7 20 14 52 17 68 17
30 0z m-1418 -25 c18 -16 30 -30 25 -30 -5 0 -17 9 -27 20 -39 43 -107 14
-146 -62 -11 -22 -16 -37 -10 -33 18 10 13 -4 -17 -48 -41 -61 -47 -76 -17
-43 33 36 44 27 17 -16 -11 -18 -34 -55 -50 -83 -35 -59 -72 -97 -72 -73 0 9
6 33 14 54 7 22 16 69 20 106 7 60 10 68 34 77 l27 9 -25 2 -25 1 25 21 c21
17 22 20 5 15 -11 -4 -26 -3 -33 2 -10 6 -2 11 24 16 l39 7 -33 13 c-38 17
-44 29 -6 15 16 -7 31 -7 38 -1 16 13 128 60 145 61 7 0 29 -13 48 -30z m1190
24 c-3 -3 -12 -4 -19 -1 -8 3 -5 6 6 6 11 1 17 -2 13 -5z m1236 -14 c-5 -19
-23 -39 -23 -25 0 9 20 45 24 45 2 0 2 -9 -1 -20z m-1124 6 c-7 -7 -79 -35
-79 -31 0 7 54 34 69 35 8 0 12 -2 10 -4z m757 -33 c-7 -7 -26 7 -26 19 0 6 6
6 15 -2 9 -7 13 -15 11 -17z m-82 -96 c8 -13 6 -21 -7 -34 -14 -14 -17 -14
-17 -3 0 8 -9 29 -21 45 -13 20 -19 23 -15 10 3 -11 1 -27 -5 -35 -7 -11 -9
-6 -7 20 1 19 -2 41 -6 48 -5 8 9 3 30 -10 21 -14 42 -32 48 -41z m485 -17 c1
-3 -7 -6 -17 -7 -13 -1 -18 7 -20 28 -4 47 10 57 24 18 7 -18 13 -36 13 -39z
m-1165 36 c-3 -9 -10 -16 -15 -16 -5 0 -4 9 3 20 14 22 21 20 12 -4z m349 -7
c4 -16 3 -18 -9 -8 -7 6 -11 15 -8 20 8 13 11 11 17 -12z m-343 -73 c-8 -8 -9
-6 -4 9 7 18 6 18 -9 6 -22 -18 -22 -6 1 24 l17 23 3 -25 c2 -14 -2 -31 -8
-37z m561 46 c-12 -22 -51 -58 -51 -47 0 9 50 65 57 65 2 0 -1 -8 -6 -18z
m-1984 -14 c-3 -8 -6 -5 -6 6 -1 11 2 17 5 13 3 -3 4 -12 1 -19z m2182 -38
c11 -24 11 -24 -3 -6 -9 11 -16 24 -16 30 0 12 5 7 19 -24z m-272 -57 c-3 -10
-5 -2 -5 17 0 19 2 27 5 18 2 -10 2 -26 0 -35z m713 13 c0 -2 -7 -7 -16 -10
-8 -3 -12 -2 -9 4 6 10 25 14 25 6z m-975 -37 c14 -22 -3 -18 -26 7 -23 25
-23 26 -2 15 12 -6 25 -16 28 -22z m450 -109 c10 -11 16 -20 13 -20 -3 0 -13
9 -23 20 -10 11 -16 20 -13 20 3 0 13 -9 23 -20z m-2458 -12 c-3 -8 -6 -5 -6
6 -1 11 2 17 5 13 3 -3 4 -12 1 -19z m1903 -26 c0 -15 -2 -15 -10 -2 -13 20
-13 33 0 25 6 -3 10 -14 10 -23z m-1697 -14 c-9 -18 -20 -51 -24 -73 -6 -40
-6 -40 -8 13 -1 40 4 57 19 72 29 29 33 25 13 -12z m2266 -27 c0 -24 -2 -23
-14 9 -18 46 -18 59 0 36 8 -11 15 -31 14 -45z m42 -23 c-19 -25 -31 -35 -31
-25 0 16 51 79 59 72 2 -2 -11 -23 -28 -47z m139 -80 c0 -16 28 -7 44 15 16
22 16 21 10 -13 -8 -44 -7 -43 -36 -30 -13 6 -29 26 -36 43 -10 29 -10 30 3
13 8 -11 15 -23 15 -28z m-2643 -25 c-3 -10 -5 -4 -5 12 0 17 2 24 5 18 2 -7
2 -21 0 -30z m2220 -25 c-3 -8 -6 -5 -6 6 -1 11 2 17 5 13 3 -3 4 -12 1 -19z
m415 -15 c-18 -19 -28 -24 -30 -15 -5 18 17 42 39 42 15 0 14 -4 -9 -27z
m-2425 -105 c-2 -13 -4 -5 -4 17 -1 22 1 32 4 23 2 -10 2 -28 0 -40z m2486 31
c-7 -7 -36 -13 -65 -15 l-53 -3 50 13 c66 18 82 19 68 5z m202 -101 c17 -29
17 -31 1 -19 -21 17 -40 51 -29 51 5 0 17 -15 28 -32z m-18 -47 c-7 -2 -18 -9
-26 -15 -12 -9 -12 -7 -2 12 7 13 10 31 7 40 -4 9 3 6 13 -8 14 -17 16 -26 8
-29z m29 -36 c-28 -36 -46 -45 -46 -22 0 13 62 68 69 62 2 -3 -8 -20 -23 -40z
m-2581 5 c-3 -5 -11 -10 -17 -10 -6 0 -20 -8 -30 -17 -18 -16 -18 -16 -12 1 4
10 16 22 28 26 29 12 38 12 31 0z m2232 4 c-3 -3 -12 -4 -19 -1 -8 3 -5 6 6 6
11 1 17 -2 13 -5z m-2197 -30 c-41 -15 -70 -17 -70 -6 0 13 53 28 80 23 24 -4
23 -5 -10 -17z m2479 -37 c1 -10 -3 -15 -9 -12 -5 3 -10 21 -9 38 0 27 2 29 9
12 5 -11 9 -28 9 -38z m-1707 21 c40 -17 47 -24 37 -32 -17 -13 -20 -24 -30
-101 -4 -33 -3 -67 2 -77 5 -9 9 -26 9 -37 0 -12 14 -63 30 -114 17 -52 30
-103 30 -113 0 -10 18 -45 40 -78 60 -87 49 -135 -29 -136 -27 0 -43 -9 -75
-44 -23 -24 -52 -49 -65 -56 -27 -14 -94 -5 -89 12 2 6 -9 25 -24 42 -26 29
-33 31 -88 29 -50 -2 -62 1 -74 18 -21 30 -3 83 43 125 39 34 58 83 39 95 -6
4 -8 18 -4 33 5 22 12 26 45 26 51 0 58 20 51 140 -4 83 -7 92 -18 75 -12 -18
-13 -17 -8 14 3 18 6 42 6 53 0 10 4 17 8 14 10 -6 47 74 43 93 -2 11 8 13 51
8 33 -3 45 -2 33 3 -43 18 -151 8 -138 -13 4 -6 0 -8 -10 -4 -9 3 -16 2 -14
-2 4 -18 -18 -12 -31 8 -12 17 -11 19 5 15 10 -3 36 2 58 10 57 21 109 19 167
-6z m851 -8 c-3 -10 -14 -22 -26 -26 -17 -5 -15 -8 19 -20 21 -8 56 -14 76
-14 20 0 44 -7 52 -16 24 -23 20 -25 -20 -8 -20 8 -46 14 -58 12 -17 -2 -12
-8 28 -30 26 -15 53 -25 59 -21 6 3 7 1 3 -5 -13 -21 -37 -13 -88 28 -28 22
-61 40 -74 40 -38 0 -40 21 -3 51 19 16 35 29 36 29 0 0 -1 -9 -4 -20z m-620
3 c-7 -2 -19 -2 -25 0 -7 3 -2 5 12 5 14 0 19 -2 13 -5z m-1109 -18 c-5 -11 3
-17 25 -21 22 -5 31 -12 31 -26 0 -17 2 -19 16 -7 26 21 148 14 197 -12 23
-13 57 -29 75 -38 17 -8 32 -19 32 -23 0 -10 -112 -9 -170 2 -34 7 -23 8 45 4
l90 -5 -49 33 c-41 27 -61 33 -117 36 -57 4 -72 1 -94 -16 l-26 -21 38 -6 c65
-11 70 -14 16 -11 -40 2 -60 10 -87 32 -33 27 -47 70 -29 87 10 11 13 8 7 -8z
m2666 -9 c0 -3 -4 -8 -10 -11 -5 -3 -10 -1 -10 4 0 6 5 11 10 11 6 0 10 -2 10
-4z m-2216 -14 c2 -4 -11 -6 -30 -4 -19 2 -34 6 -34 8 0 8 59 4 64 -4z m-678
-49 c-10 -26 -18 -8 -9 23 5 21 8 24 11 11 2 -10 1 -25 -2 -34z m2912 18 c-7
-12 -16 -21 -21 -21 -8 0 -2 14 16 38 16 20 20 6 5 -17z m-1479 3 c23 -5 29
-9 20 -15 -22 -14 -59 -10 -59 5 0 8 -12 17 -27 19 -21 3 -20 3 2 1 17 -2 45
-6 64 -10z m201 -8 c0 -7 -40 -14 -44 -7 -3 4 6 8 20 9 13 1 24 0 24 -2z
m1170 0 c0 -3 -4 -8 -10 -11 -5 -3 -10 -1 -10 4 0 6 5 11 10 11 6 0 10 -2 10
-4z m-18 -63 c7 -9 7 -13 0 -13 -13 0 -22 25 -21 53 2 19 2 19 6 -3 3 -14 10
-31 15 -37z m-1544 27 c17 -11 32 -25 32 -32 0 -6 -10 -3 -22 9 -13 11 -32 25
-43 31 -11 6 -15 12 -10 12 6 0 25 -9 43 -20z m1565 -5 c-3 -9 -8 -14 -10 -11
-3 3 -2 9 2 15 9 16 15 13 8 -4z m-2107 -87 l29 -33 -32 29 c-31 28 -38 36
-30 36 2 0 16 -15 33 -32z m679 -27 c22 -25 25 -30 9 -21 -12 8 -30 27 -39 44
-10 17 -14 27 -9 21 5 -5 23 -25 39 -44z m302 -16 c0 -19 -18 -19 -43 0 -18
14 -17 14 12 15 21 0 31 -5 31 -15z m983 -7 c8 -3 -13 -5 -48 -5 -34 -1 -65 3
-68 8 -3 5 8 6 24 3 17 -4 32 -1 36 5 5 7 14 8 24 2 9 -4 24 -10 32 -13z
m-2095 -18 c4 -6 10 -8 14 -5 8 4 0 -46 -15 -94 -6 -21 -8 -22 -14 -7 -5 16
-8 16 -34 -5 -16 -12 -41 -23 -57 -24 -27 -2 -27 -1 -14 24 16 32 94 121 105
121 5 0 12 -5 15 -10z m1075 -11 c12 -9 13 -12 1 -16 -10 -4 -11 -7 -1 -13 7
-4 10 -15 7 -24 -11 -28 -43 -3 -41 31 1 15 2 29 3 31 3 5 17 1 31 -9z m-81
-38 c14 -10 46 -31 71 -47 33 -21 40 -29 27 -32 -9 -2 -14 -8 -11 -13 3 -6
-16 6 -44 25 -27 20 -56 36 -65 36 -18 0 -32 30 -14 31 7 1 -6 7 -28 15 l-40
14 39 -6 c21 -3 50 -13 65 -23z m-1545 -144 c-7 -84 10 -452 32 -664 16 -159
16 -169 9 -161 -29 28 -79 811 -56 871 17 45 22 31 15 -46z m2039 -156 c-4
-16 -11 -20 -24 -16 -14 5 -22 -1 -30 -19 -7 -14 -18 -27 -25 -30 -16 -6 -1
31 33 83 13 19 23 39 23 45 1 6 7 -1 15 -15 8 -14 11 -36 8 -48z m-2196 -17
c-3 -3 -12 -4 -19 -1 -8 3 -5 6 6 6 11 1 17 -2 13 -5z m-70 -81 c-4 -32 -3
-89 2 -127 5 -38 6 -78 2 -89 -5 -13 -10 13 -14 73 -11 155 -9 200 11 200 3 0
2 -26 -1 -57z m322 43 c-12 -10 -60 -16 -54 -6 3 5 18 10 32 10 15 0 24 -2 22
-4z m-232 -83 c-3 -10 -5 -2 -5 17 0 19 2 27 5 18 2 -10 2 -26 0 -35z m20 10
c-3 -10 -5 -4 -5 12 0 17 2 24 5 18 2 -7 2 -21 0 -30z m2116 10 c-7 -2 -21 -2
-30 0 -10 3 -4 5 12 5 17 0 24 -2 18 -5z m-1806 -45 c-3 -7 -5 -2 -5 12 0 14
2 19 5 13 2 -7 2 -19 0 -25z m1002 -33 c16 -3 36 -14 43 -23 11 -15 11 -15 -2
-6 -8 7 -29 15 -47 19 -35 7 -83 40 -83 57 0 5 13 -1 30 -15 16 -14 43 -28 59
-32z m-5 30 c11 -8 15 -15 10 -15 -6 0 -19 7 -30 15 -10 8 -14 14 -9 14 6 0
19 -6 29 -14z m-1074 -35 c0 -50 22 -54 50 -7 11 17 20 26 20 19 0 -7 -13 -33
-30 -57 -16 -24 -30 -56 -30 -72 0 -27 1 -26 21 12 29 55 43 68 25 23 -9 -21
-16 -49 -16 -63 0 -14 -7 -28 -15 -31 -10 -4 -15 -20 -15 -50 0 -43 15 -60 23
-26 4 16 4 16 12 -1 4 -9 4 -29 -1 -45 -6 -23 -8 -24 -12 -7 -4 14 -8 8 -16
-24 -6 -25 -16 -46 -22 -48 -13 -4 -24 63 -24 140 l0 50 -25 -23 -25 -23 0 22
c0 13 9 34 20 48 27 35 26 60 -2 59 -18 -1 -24 5 -26 27 -2 15 1 27 7 27 6 0
11 -5 11 -11 0 -5 5 -7 10 -4 6 3 10 17 10 31 0 25 28 73 43 74 4 0 7 -18 7
-40z m-267 3 c-7 -2 -19 -2 -25 0 -7 3 -2 5 12 5 14 0 19 -2 13 -5z m1234 -50
c-3 -10 -5 -2 -5 17 0 19 2 27 5 18 2 -10 2 -26 0 -35z m52 13 c-3 -3 -11 5
-18 17 -13 21 -12 21 5 5 10 -10 16 -20 13 -22z m-414 -14 l-28 -27 23 33 c12
18 25 31 28 27 3 -3 -7 -18 -23 -33z m-788 -39 c-2 -16 -4 -5 -4 22 0 28 2 40
4 28 2 -13 2 -35 0 -50z m-672 37 c7 -12 -12 -12 -40 0 -18 8 -17 9 7 9 15 1
30 -3 33 -9z m642 -52 c-2 -13 -4 -3 -4 22 0 25 2 35 4 23 2 -13 2 -33 0 -45z
m1290 25 c-3 -10 -5 -4 -5 12 0 17 2 24 5 18 2 -7 2 -21 0 -30z m-206 10 c-5
-10 -22 -29 -37 -43 l-28 -25 27 33 c15 19 27 38 27 43 0 5 5 9 10 9 7 0 7 -6
1 -17z m142 -70 c13 -20 25 -15 41 15 9 15 15 20 16 12 0 -13 1 -13 10 0 8 13
10 13 10 -1 0 -9 6 -16 13 -16 18 2 97 -25 97 -33 0 -12 -57 -20 -92 -13 -20
4 -29 2 -25 -4 8 -12 -44 -28 -135 -43 -63 -10 -394 3 -407 16 -3 3 5 7 17 11
12 3 20 9 17 13 -9 14 58 29 133 29 44 0 72 -4 72 -11 0 -6 7 -5 16 3 11 9 37
13 79 10 81 -4 103 8 112 62 l7 42 6 -40 c3 -22 9 -46 13 -52z m217 37 c0 -4
15 -18 33 -30 28 -18 29 -20 7 -15 -33 9 -73 35 -66 43 4 3 -4 17 -16 31 l-23
25 33 -23 c17 -12 32 -26 32 -31z m437 -47 c-2 -21 -4 -6 -4 32 0 39 2 55 4
38 2 -18 2 -50 0 -70z m-1572 47 c-9 -41 -17 -33 -9 9 4 17 9 30 11 27 3 -2 2
-19 -2 -36z m119 6 c-3 -15 -8 -25 -11 -23 -2 3 -1 17 3 31 3 15 8 25 11 23 2
-3 1 -17 -3 -31z m928 -23 c8 -11 7 -12 -6 -7 -9 3 -16 9 -16 13 0 3 -3 17 -5
31 l-6 25 11 -24 c6 -14 16 -31 22 -38z m591 40 c-7 -2 -19 -2 -25 0 -7 3 -2
5 12 5 14 0 19 -2 13 -5z m-703 -50 c-11 -17 -11 -17 -6 0 3 10 6 24 7 30 0 9
2 9 5 0 3 -7 0 -20 -6 -30z m-521 -10 c-13 -21 -112 -87 -107 -73 2 8 104 86
116 89 1 1 -3 -7 -9 -16z m124 10 c-7 -2 -19 -2 -25 0 -7 3 -2 5 12 5 14 0 19
-2 13 -5z m-43 -7 c0 -2 -8 -10 -17 -17 -16 -13 -17 -12 -4 4 13 16 21 21 21
13z m-174 -28 c-30 -23 -66 -95 -66 -134 0 -13 -4 -24 -10 -24 -34 0 25 141
68 165 38 20 42 18 8 -7z m1144 -12 c0 -7 3 -29 6 -47 4 -19 3 -31 -1 -27 -11
11 -24 88 -14 88 5 0 9 -6 9 -14z m-1210 -30 c0 -2 -7 -7 -16 -10 -8 -3 -12
-2 -9 4 6 10 25 14 25 6z m65 -56 c-27 -27 -39 -48 -37 -63 1 -12 -4 -31 -13
-42 -16 -20 -16 -19 -11 5 3 14 6 33 6 44 0 10 19 36 42 57 56 51 63 50 13 -1z
m688 15 c27 -11 43 -12 63 -5 15 6 33 9 40 6 17 -6 45 -61 48 -92 2 -14 18
-38 37 -55 l34 -29 -39 25 c-50 32 -60 32 -52 -2 17 -70 17 -69 5 -45 -19 36
-29 25 -29 -33 0 -30 -3 -54 -7 -54 -38 6 -45 -53 -17 -148 25 -87 10 -71 -21
22 -15 47 -30 85 -32 85 -2 0 -1 -9 2 -20 4 -13 2 -20 -6 -20 -8 0 -6 -6 4
-18 10 -10 17 -29 17 -43 0 -21 -3 -20 -26 15 l-27 39 -13 -24 c-7 -13 -13
-33 -14 -43 0 -30 -10 -13 -20 35 l-9 44 4 -45 c2 -25 7 -61 9 -80 l6 -35 -12
35 c-7 19 -18 41 -25 48 -7 7 -12 30 -12 50 l1 37 8 -30 c6 -23 8 -12 9 43 1
46 5 71 11 67 18 -11 10 39 -13 80 -26 46 -57 65 -110 65 -80 0 -197 -81 -197
-138 0 -16 -7 -35 -15 -42 -9 -7 -13 -21 -10 -30 3 -10 -2 -23 -12 -31 -16
-13 -17 -12 -4 4 8 9 12 20 9 23 -3 2 -13 -7 -22 -21 -15 -23 -45 -38 -31 -15
9 15 -2 12 -33 -7 l-27 -17 29 32 c17 18 25 32 19 32 -6 0 -9 14 -7 33 3 31 3
31 -12 12 -15 -19 -16 -18 -9 13 7 32 6 33 -14 22 -23 -12 -41 -6 -41 14 0 7
-12 35 -26 62 -25 46 -25 50 -10 81 9 20 30 40 51 50 31 15 40 15 73 4 70 -26
68 -25 55 -10 -7 7 -13 16 -13 19 0 17 60 30 143 31 51 0 115 4 142 9 80 12
110 11 148 -5z m-803 2 c0 -2 -12 -14 -27 -28 l-28 -24 24 28 c23 25 31 32 31
24z m1382 -87 c7 0 9 14 5 38 -10 67 10 3 47 -153 41 -170 44 -199 13 -105
-12 36 -27 64 -32 63 -6 -1 -39 -5 -73 -9 l-62 -7 23 49 c34 73 40 81 67 88
l25 7 -25 -20 c-23 -19 -24 -20 -3 -15 23 6 37 29 27 45 -3 5 -14 4 -26 -2
-19 -10 -20 -9 -15 12 4 13 8 38 9 54 1 26 2 25 5 -7 2 -21 9 -38 15 -38z
m-1545 -37 c-3 -10 -5 -2 -5 17 0 19 2 27 5 18 2 -10 2 -26 0 -35z m53 25 c0
-13 -12 -36 -26 -53 -25 -29 -25 -29 -10 -3 9 15 16 36 16 46 0 17 8 32 17 32
2 0 3 -10 3 -22z m233 -20 c-2 -13 -14 -35 -25 -48 -16 -20 -19 -21 -13 -5 4
11 11 35 17 53 10 36 28 36 21 0z m922 -9 c4 -11 4 -23 0 -27 -7 -7 -25 17
-25 36 0 20 18 14 25 -9z m-1244 -16 c-12 -20 -14 -14 -5 12 4 9 9 14 11 11 3
-2 0 -13 -6 -23z m320 -58 c-9 -25 -23 -51 -29 -57 -13 -13 15 69 31 90 16 21
16 14 -2 -33z m1409 10 c0 -17 -5 -25 -17 -24 -11 0 -13 3 -5 6 6 2 10 9 6 14
-5 9 3 29 12 29 2 0 4 -11 4 -25z m-526 -1 c3 -8 2 -12 -4 -9 -6 3 -10 10 -10
16 0 14 7 11 14 -7z m408 -71 c-9 -4 -10 -9 -2 -18 8 -10 0 -14 -36 -20 -37
-5 -50 -3 -66 12 -20 18 -20 18 28 24 65 8 92 9 76 2z m-983 -75 c-8 -37 -19
-54 -50 -79 -48 -38 -51 -25 -4 21 22 22 35 43 35 60 0 22 18 55 26 47 1 -1
-2 -23 -7 -49z m1001 13 c0 -36 -67 -43 -96 -9 -10 12 -14 19 -9 16 6 -3 28
-2 50 2 22 4 43 8 48 9 4 0 7 -8 7 -18z m-1554 -55 c-9 -52 -15 -61 -31 -40
-11 15 -16 16 -44 4 -29 -12 -30 -14 -14 -26 14 -10 2 -9 -47 3 -36 9 -87 16
-115 16 -72 0 -334 -20 -375 -29 -19 -4 -32 -4 -29 0 4 4 76 16 160 27 85 11
224 35 309 54 196 41 194 41 186 -9z m384 4 c-12 -16 -24 -30 -26 -30 -7 0 5
20 24 43 24 27 25 20 2 -13z m231 -16 c-12 -19 -22 -45 -22 -57 -1 -17 -2 -18
-6 -4 -5 20 -14 22 -32 5 -10 -11 -11 -10 -6 3 4 10 1 20 -5 24 -6 3 -9 3 -8
-2 2 -4 -1 -9 -7 -11 -5 -2 -18 -11 -27 -19 -10 -9 -18 -11 -18 -5 0 6 19 26
43 45 51 41 84 59 42 23 -16 -14 -25 -26 -20 -26 6 0 26 13 45 30 19 16 37 29
38 30 2 0 -5 -16 -17 -36z m29 -21 c-11 -17 -11 -17 -6 0 3 10 7 26 7 35 1 15
2 15 6 0 2 -10 -1 -25 -7 -35z m915 37 c-28 -12 -37 -12 -30 0 3 6 16 10 28 9
21 0 21 -1 2 -9z m-1077 -24 c-10 -7 -25 -26 -33 -42 l-16 -29 4 40 c2 30 7
39 19 37 9 -1 20 2 23 8 4 6 10 8 13 5 4 -4 -1 -12 -10 -19z m623 -3 c13 -16
12 -17 -3 -4 -17 13 -22 21 -14 21 2 0 10 -8 17 -17z m464 7 c-11 -5 -27 -9
-35 -9 -13 -1 -13 0 0 9 8 5 24 9 35 9 l20 0 -20 -9z m-475 -25 c13 -14 21
-25 18 -25 -2 0 -15 11 -28 25 -13 14 -21 25 -18 25 2 0 15 -11 28 -25z m-431
-27 c-12 -24 -26 -56 -30 -73 l-7 -30 -1 29 c-1 16 10 49 24 73 33 55 42 56
14 1z m68 20 c-3 -8 -6 -5 -6 6 -1 11 2 17 5 13 3 -3 4 -12 1 -19z m-467 9 c0
-2 -10 -12 -22 -23 l-23 -19 19 23 c18 21 26 27 26 19z m1007 -29 c-3 -8 -6
-5 -6 6 -1 11 2 17 5 13 3 -3 4 -12 1 -19z m-462 -19 c9 -17 14 -33 11 -36 -4
-4 -36 49 -36 62 0 13 11 2 25 -26z m160 1 c10 -11 16 -20 13 -20 -3 0 -13 9
-23 20 -10 11 -16 20 -13 20 3 0 13 -9 23 -20z m156 -7 c-12 -20 -14 -14 -5
12 4 9 9 14 11 11 3 -2 0 -13 -6 -23z m-554 -30 c-3 -10 -5 -2 -5 17 0 19 2
27 5 18 2 -10 2 -26 0 -35z m330 0 c-3 -10 -5 -4 -5 12 0 17 2 24 5 18 2 -7 2
-21 0 -30z m54 20 c13 -16 12 -17 -3 -4 -17 13 -22 21 -14 21 2 0 10 -8 17
-17z m114 -3 c10 -11 16 -20 13 -20 -3 0 -13 9 -23 20 -10 11 -16 20 -13 20 3
0 13 -9 23 -20z m-748 -32 c-3 -8 -6 -5 -6 6 -1 11 2 17 5 13 3 -3 4 -12 1
-19z m543 -107 c-1 -13 -29 45 -29 59 0 8 6 0 14 -19 8 -18 15 -36 15 -40z
m-203 -117 c-3 -3 -12 -4 -19 -1 -8 3 -5 6 6 6 11 1 17 -2 13 -5z"/>
<path d="M3663 3583 c9 -2 25 -2 35 0 9 3 1 5 -18 5 -19 0 -27 -2 -17 -5z"/>
<path d="M1827 1923 c10 -3 9 -10 -2 -27 -8 -12 -12 -27 -8 -32 5 -5 -1 -1
-13 9 -11 9 -31 17 -45 17 -22 0 -21 -2 11 -22 19 -12 46 -23 60 -24 14 -1 41
-6 61 -12 40 -10 69 0 69 23 0 24 -38 55 -67 55 -22 0 -25 2 -13 10 11 7 4 10
-25 9 -22 0 -34 -3 -28 -6z"/>
<path d="M1999 1884 l-24 -27 28 18 c15 9 27 21 27 26 0 14 -5 11 -31 -17z"/>
<path d="M1964 1562 c-18 -9 -24 -17 -16 -20 18 -6 80 7 87 17 9 16 -43 18
-71 3z"/>
<path d="M1758 1548 c8 -8 17 -8 34 0 22 10 21 11 -11 11 -27 1 -32 -2 -23
-11z"/>
<path d="M2022 1333 c2 -5 12 -25 21 -46 10 -21 22 -35 27 -32 18 11 10 54
-12 69 -24 17 -42 21 -36 9z"/>
<path d="M1727 1309 c-9 -5 -21 -8 -26 -4 -5 3 -13 -4 -16 -16 -6 -17 -9 -19
-16 -8 -7 11 -9 9 -9 -7 0 -12 7 -27 15 -34 10 -8 15 -9 15 -2 0 6 14 27 31
47 33 37 34 40 6 24z"/>
<path d="M2634 1300 c-12 -5 -25 -14 -29 -20 -5 -8 -2 -9 11 -1 11 6 35 15 54
20 28 7 30 9 10 9 -14 1 -35 -3 -46 -8z"/>
<path d="M2250 3830 c20 -13 40 -13 40 0 0 6 -12 10 -27 10 -22 0 -25 -2 -13
-10z"/>
<path d="M3270 3820 c6 -11 13 -20 15 -20 3 0 5 9 5 20 0 11 -7 20 -15 20 -13
0 -14 -4 -5 -20z"/>
<path d="M1683 3813 c9 -2 23 -2 30 0 6 3 -1 5 -18 5 -16 0 -22 -2 -12 -5z"/>
<path d="M2148 3793 c7 -3 16 -2 19 1 4 3 -2 6 -13 5 -11 0 -14 -3 -6 -6z"/>
<path d="M7 3773 c17 -6 17 -33 1 -34 -7 0 18 -7 55 -14 37 -8 78 -17 90 -21
22 -7 22 -6 3 15 -15 16 -26 20 -51 15 -25 -4 -38 0 -62 20 -17 14 -35 26 -39
25 -5 0 -3 -3 3 -6z"/>
<path d="M1868 3773 c7 -3 16 -2 19 1 4 3 -2 6 -13 5 -11 0 -14 -3 -6 -6z"/>
<path d="M3790 3749 c0 -16 20 -49 29 -49 5 0 4 14 -2 30 -11 29 -27 41 -27
19z"/>
<path d="M2190 3706 c0 -8 67 -46 81 -46 8 0 -4 11 -26 25 -38 23 -55 30 -55
21z"/>
<path d="M0 3680 c0 -5 17 -12 38 -16 20 -3 61 -12 90 -19 73 -18 55 0 -24 25
-72 22 -104 25 -104 10z"/>
<path d="M1610 3666 c0 -2 7 -9 15 -16 13 -11 14 -10 9 4 -5 14 -24 23 -24 12z"/>
<path d="M0 3630 c0 -5 10 -10 23 -10 12 0 40 -3 62 -5 28 -4 34 -3 20 3 -34
15 -105 23 -105 12z"/>
<path d="M3832 3600 c0 -14 2 -19 5 -12 2 6 2 18 0 25 -3 6 -5 1 -5 -13z"/>
<path d="M0 3590 c0 -5 21 -9 48 -9 42 1 44 2 17 9 -44 11 -65 11 -65 0z"/>
<path d="M108 3573 c7 -3 16 -2 19 1 4 3 -2 6 -13 5 -11 0 -14 -3 -6 -6z"/>
<path d="M18 3563 c12 -2 30 -2 40 0 9 3 -1 5 -23 4 -22 0 -30 -2 -17 -4z"/>
<path d="M88 3553 c6 -2 18 -2 25 0 6 3 1 5 -13 5 -14 0 -19 -2 -12 -5z"/>
<path d="M25 3540 c17 -4 39 -8 50 -8 16 0 15 2 -5 8 -14 4 -36 8 -50 8 -22 0
-22 -1 5 -8z"/>
<path d="M0 3419 c0 -57 3 -67 19 -72 22 -5 34 1 48 27 10 19 11 19 17 -2 7
-20 52 -42 85 -42 14 1 14 2 -1 13 -13 10 -15 23 -11 57 5 35 2 46 -12 57 -27
19 -41 16 -22 -5 20 -22 19 -102 0 -102 -7 0 -13 6 -13 13 0 29 -32 117 -40
112 -5 -3 -15 -33 -21 -67 -13 -66 -27 -60 -28 12 -1 19 -6 42 -11 50 -7 11
-10 -5 -10 -51z"/>
<path d="M180 3404 c0 -21 5 -46 11 -54 7 -11 8 -1 3 35 -8 62 -14 70 -14 19z"/>
<path d="M2 3279 c3 -9 25 -15 64 -17 73 -4 62 13 -15 23 -43 6 -53 5 -49 -6z"/>
<path d="M0 3220 c0 -11 31 -11 75 0 26 7 22 8 -22 9 -30 0 -53 -3 -53 -9z"/>
<path d="M0 3160 c0 -13 10 -24 26 -30 34 -13 34 -13 27 8 -6 15 -4 15 15 -2
20 -17 22 -17 28 -2 10 26 -15 46 -57 46 -32 0 -39 -3 -39 -20z"/>
<path d="M147 3167 c-2 -6 4 -20 13 -30 17 -17 17 -17 12 8 -5 29 -18 41 -25
22z"/>
<path d="M1570 3154 c-36 -13 -73 -34 -84 -47 l-18 -22 61 -3 c36 -2 59 -7 56
-12 -8 -13 -8 -13 78 4 163 33 179 32 347 -15 70 -20 129 -17 165 7 24 17 62
18 67 2 2 -6 27 -14 56 -18 42 -5 49 -4 41 7 -6 7 -9 22 -6 33 3 11 0 23 -6
27 -7 4 -2 10 13 13 22 6 18 8 -25 19 -86 21 -139 27 -180 19 -35 -7 -53 -10
-102 -16 -7 -1 -13 -8 -13 -16 0 -22 -47 -55 -70 -49 -11 3 -17 9 -14 14 3 5
-16 19 -41 30 -37 16 -64 20 -119 18 -39 -1 -89 1 -111 6 l-40 9 30 7 c26 6
27 7 5 7 -14 0 -54 -11 -90 -24z"/>
<path d="M3433 3137 c39 -16 33 -27 -13 -27 -23 0 -40 -5 -40 -11 0 -15 83 -5
88 10 2 6 13 11 25 11 22 1 22 1 3 15 -11 8 -36 15 -55 14 l-36 -1 28 -11z"/>
<path d="M3560 3124 c-14 -14 -44 -34 -66 -44 -47 -21 -72 -47 -33 -35 13 4
33 14 44 21 11 8 26 14 35 14 9 -1 5 -6 -10 -15 -25 -14 -24 -14 17 -15 33 0
46 5 63 27 44 56 -2 99 -50 47z"/>
<path d="M3743 3100 c-21 -10 -56 -37 -78 -61 -22 -24 -31 -37 -20 -29 11 8
24 21 28 28 9 13 111 62 130 62 6 0 2 -7 -9 -16 -17 -14 -17 -15 -1 -10 10 3
25 6 33 6 8 0 14 9 14 19 0 25 -44 25 -97 1z"/>
<path d="M14 3085 c-22 -33 -8 -47 15 -16 17 23 18 23 23 3 3 -11 16 -25 28
-32 25 -13 24 -9 -12 43 -24 34 -33 34 -54 2z"/>
<path d="M2381 3092 c-13 -24 -6 -31 20 -25 11 3 19 12 17 21 -5 23 -25 26
-37 4z"/>
<path d="M127 3088 c-7 -21 12 -48 34 -48 19 0 19 1 5 16 -19 19 -20 31 -3 37
6 3 2 6 -10 6 -12 1 -23 -5 -26 -11z"/>
<path d="M213 3060 c0 -25 2 -35 4 -22 2 12 2 32 0 45 -2 12 -4 2 -4 -23z"/>
<path d="M3485 3030 c-18 -8 -17 -9 8 -9 15 -1 27 4 27 9 0 12 -8 12 -35 0z"/>
<path d="M0 3014 c0 -11 5 -14 16 -10 9 3 30 6 47 7 27 0 29 2 12 9 -35 15
-75 12 -75 -6z"/>
<path d="M155 3010 c3 -5 15 -10 26 -10 11 0 17 5 14 10 -3 6 -15 10 -26 10
-11 0 -17 -4 -14 -10z"/>
<path d="M3533 2993 c9 -2 23 -2 30 0 6 3 -1 5 -18 5 -16 0 -22 -2 -12 -5z"/>
<path d="M3600 2990 c-9 -6 -10 -10 -3 -10 6 0 15 5 18 10 8 12 4 12 -15 0z"/>
<path d="M5 2980 c-4 -6 19 -10 62 -10 37 0 86 -2 108 -5 37 -4 37 -3 -10 9
-60 17 -151 20 -160 6z"/>
<path d="M50 2940 c-18 -6 -6 -8 43 -9 43 -1 66 3 62 9 -7 12 -69 12 -105 0z"/>
<path d="M210 2925 c-1 -11 -2 -27 -1 -35 1 -11 -1 -11 -9 3 -9 14 -25 17 -85
17 -59 0 -73 -3 -69 -14 3 -9 32 -16 85 -21 45 -3 83 -4 86 -2 2 3 3 20 0 39
-2 18 -5 24 -7 13z"/>
<path d="M3638 2911 c-18 -17 -28 -30 -23 -30 15 0 70 47 63 54 -3 4 -21 -7
-40 -24z"/>
<path d="M0 2850 c0 -5 5 -10 10 -10 6 0 10 -5 10 -11 0 -5 -4 -8 -9 -5 -5 3
-9 -21 -10 -55 0 -33 3 -58 8 -55 26 17 69 15 86 -4 19 -21 7 -28 -13 -8 -9 9
-12 6 -12 -16 0 -16 4 -25 11 -21 5 4 24 0 42 -8 23 -11 42 -13 67 -7 25 6 28
8 12 9 -13 1 -20 6 -17 11 3 6 -6 15 -21 20 -31 12 -100 70 -84 70 6 0 19 -4
28 -9 14 -7 17 -4 18 20 1 23 -2 27 -12 18 -21 -18 -68 6 -81 41 -11 28 -33
42 -33 20z"/>
<path d="M78 2853 c17 -2 47 -2 65 0 17 2 3 4 -33 4 -36 0 -50 -2 -32 -4z"/>
<path d="M3623 2853 c9 -2 23 -2 30 0 6 3 -1 5 -18 5 -16 0 -22 -2 -12 -5z"/>
<path d="M203 2843 c9 -2 23 -2 30 0 6 3 -1 5 -18 5 -16 0 -22 -2 -12 -5z"/>
<path d="M2702 2810 c0 -19 2 -27 5 -17 2 9 2 25 0 35 -3 9 -5 1 -5 -18z"/>
<path d="M159 2817 c5 -5 19 -7 32 -5 20 3 19 5 -9 9 -20 3 -29 2 -23 -4z"/>
<path d="M1920 2810 c0 -5 -28 -10 -62 -10 -99 0 -157 -4 -153 -11 3 -3 -7
-11 -21 -18 -31 -14 -37 -14 -29 -1 3 5 -8 2 -24 -8 -38 -21 -39 -29 -3 -35
15 -2 3 -5 -25 -6 -34 0 -53 3 -53 10 0 9 -24 10 -85 5 -47 -4 -85 -5 -85 -2
0 3 21 12 48 21 l47 15 -45 -6 c-25 -4 -57 -13 -72 -20 -15 -8 -50 -19 -78
-25 -27 -6 -48 -14 -45 -19 3 -5 -7 -13 -22 -19 -24 -9 -20 -10 22 -4 67 9
590 4 795 -8 319 -18 435 -28 465 -37 17 -6 46 -13 65 -16 l35 -5 -35 19 c-19
10 -31 19 -26 20 5 0 -1 11 -14 25 -13 14 -29 24 -35 21 -7 -2 -38 2 -71 10
-32 8 -90 14 -129 13 -69 -1 -104 6 -116 24 -12 17 -88 46 -95 36 -4 -7 -10
-6 -19 1 -13 11 -45 4 -45 -10 0 -5 -9 -6 -19 -3 -11 3 -18 12 -16 21 1 10 -3
20 -9 24 -16 11 -46 10 -46 -2z m383 -127 c-7 -2 -19 -2 -25 0 -7 3 -2 5 12 5
14 0 19 -2 13 -5z m194 -19 c-3 -3 -12 -4 -19 -1 -8 3 -5 6 6 6 11 1 17 -2 13
-5z"/>
<path d="M2680 2778 c0 -9 5 -20 10 -23 13 -8 13 5 0 25 -8 13 -10 13 -10 -2z"/>
<path d="M3120 2763 c0 -4 5 -15 10 -23 8 -13 10 -13 10 2 0 9 -4 20 -10 23
-5 3 -10 3 -10 -2z"/>
<path d="M3293 2758 c4 -14 36 -12 52 3 5 5 -4 9 -24 9 -22 0 -31 -4 -28 -12z"/>
<path d="M161 2746 c2 -2 18 -6 34 -10 22 -5 26 -4 15 4 -14 9 -59 15 -49 6z"/>
<path d="M2440 2716 c28 -17 50 -21 35 -7 -6 5 -21 12 -35 15 l-25 7 25 -15z"/>
<path d="M178 2713 c7 -3 16 -2 19 1 4 3 -2 6 -13 5 -11 0 -14 -3 -6 -6z"/>
<path d="M3600 2709 c0 -5 5 -7 10 -4 6 3 10 8 10 11 0 2 -4 4 -10 4 -5 0 -10
-5 -10 -11z"/>
<path d="M8 2693 c7 -3 16 -2 19 1 4 3 -2 6 -13 5 -11 0 -14 -3 -6 -6z"/>
<path d="M29 2677 c-24 -9 -27 -15 -28 -68 -1 -42 3 -59 11 -58 17 1 56 17 43
18 -11 1 -11 76 0 104 4 9 6 17 4 16 -2 -1 -16 -6 -30 -12z"/>
<path d="M2947 2669 c12 -12 25 -20 28 -17 3 3 -7 13 -22 23 l-28 17 22 -23z"/>
<path d="M72 2629 c6 -18 51 -34 74 -25 25 10 6 25 -41 33 -30 5 -37 3 -33 -8z"/>
<path d="M3037 2603 c-7 -35 -5 -37 15 -13 14 15 14 21 4 30 -11 8 -15 4 -19
-17z"/>
<path d="M70 2590 c0 -11 52 -40 72 -40 7 0 -4 11 -24 25 -41 27 -48 30 -48
15z"/>
<path d="M2949 2588 c0 -7 -2 -21 -4 -31 -2 -10 5 -23 16 -30 12 -8 19 -24 20
-47 l1 -35 10 28 c14 40 2 98 -19 90 -12 -5 -15 -2 -10 10 3 9 2 19 -3 22 -6
4 -10 0 -11 -7z"/>
<path d="M3055 2570 c-8 -16 -15 -49 -15 -73 0 -23 -5 -48 -12 -55 -8 -8 -9
-12 -1 -12 6 0 21 12 32 26 15 20 21 22 21 10 0 -22 37 -21 77 4 l32 19 11
-34 c6 -19 9 -44 5 -54 -8 -25 11 -61 32 -61 8 0 31 14 50 31 32 27 40 30 89
25 30 -2 52 -1 50 2 -11 19 -16 135 -6 147 12 15 -17 20 -182 31 -54 3 -100
10 -104 15 -3 5 -18 9 -34 9 -23 0 -33 -7 -45 -30z m184 -20 c-9 -5 -20 -21
-23 -35 -4 -14 -11 -23 -16 -20 -6 4 -6 14 1 28 9 18 5 16 -20 -8 l-33 -30 7
27 c7 25 5 26 -27 21 -18 -3 -39 -10 -45 -15 -14 -11 -17 0 -5 18 12 18 33 22
107 23 49 0 65 -2 54 -9z m54 -20 c-3 -12 -8 -18 -11 -15 -3 3 -14 -18 -23
-47 -19 -61 -24 -43 -8 32 8 38 15 50 29 50 13 0 17 -5 13 -20z m33 -36 c1
-39 0 -44 -12 -32 -10 9 -12 25 -8 46 9 46 19 39 20 -14z m35 -44 c-9 -23 -10
-21 -10 16 -1 22 2 44 7 48 11 12 14 -37 3 -64z"/>
<path d="M3559 2485 c-6 -85 -4 -94 11 -79 6 6 7 38 2 84 l-8 75 -5 -80z"/>
<path d="M187 2503 c-47 -32 -41 -41 13 -19 23 9 46 14 52 10 6 -4 8 1 6 12
-5 27 -28 26 -71 -3z"/>
<path d="M33 2473 c9 -2 25 -2 35 0 9 3 1 5 -18 5 -19 0 -27 -2 -17 -5z"/>
<path d="M3173 2441 c-6 -10 -24 -22 -39 -25 -16 -4 -44 -26 -64 -48 -55 -64
-55 -67 -12 -61 25 3 50 -1 70 -11 36 -18 46 -20 37 -6 -4 6 10 10 34 10 22 0
42 4 45 9 9 14 -58 23 -127 16 -65 -5 -49 7 25 20 35 5 37 8 43 50 9 54 4 71
-12 46z"/>
<path d="M2976 2417 c-11 -8 -17 -18 -15 -23 2 -5 14 1 26 14 24 24 17 30 -11
9z"/>
<path d="M3057 2382 c-19 -20 -23 -37 -7 -27 10 6 33 45 27 45 -2 0 -11 -8
-20 -18z"/>
<path d="M971 2383 c-1 -6 -4 -20 -7 -30 -5 -17 -5 -17 6 0 6 10 9 23 6 30 -3
9 -5 9 -5 0z"/>
<path d="M3320 2362 c-36 -16 -59 -40 -66 -67 -10 -44 -23 -55 -63 -55 -23 0
-31 3 -23 9 11 6 10 10 -4 15 -9 4 -28 -1 -41 -9 -19 -13 -23 -23 -21 -48 l3
-32 110 -3 110 -3 -85 -31 c-47 -16 -106 -38 -132 -47 -57 -19 -62 -33 -10
-30 43 3 75 16 67 28 -5 9 18 21 38 21 8 -1 6 -5 -3 -13 -17 -14 -30 -33 -61
-90 -11 -22 -23 -37 -26 -34 -2 3 0 14 6 25 20 38 11 41 -25 8 -27 -25 -35
-39 -31 -55 6 -24 -3 -27 -22 -8 -8 6 -11 7 -8 1 4 -6 -2 -19 -13 -29 -12 -11
-20 -31 -20 -52 0 -18 -5 -33 -11 -33 -17 0 -3 -59 21 -92 25 -34 26 -46 2
-24 -17 15 -21 15 -50 0 -39 -19 -40 -37 -5 -67 15 -12 45 -38 67 -57 73 -63
157 -134 227 -190 235 -189 274 -225 251 -228 -13 -2 -41 5 -62 16 -55 27 -39
8 21 -27 46 -26 48 -29 27 -35 -13 -3 -34 -6 -48 -7 -17 -1 -19 -3 -7 -6 9 -2
17 -9 17 -15 0 -6 10 -8 24 -4 16 4 26 1 30 -9 3 -8 13 -15 23 -15 15 0 16 -2
3 -10 -11 -7 -5 -10 23 -10 38 0 54 -12 100 -71 22 -29 11 -5 -15 33 -10 15
-14 28 -8 30 6 2 2 18 -8 38 -22 40 -19 60 8 60 10 0 21 4 24 9 3 4 46 12 96
15 l90 8 0 188 0 188 -197 4 c-131 3 -206 8 -220 16 -13 7 -23 9 -23 5 0 -5
19 -17 43 -28 51 -24 59 -58 14 -63 -37 -4 -54 11 -61 56 -4 20 -9 51 -12 67
-6 29 -5 29 10 9 25 -34 85 -42 276 -35 l175 6 -147 9 c-127 7 -149 11 -165
28 -17 19 -16 19 72 14 50 -3 123 -8 163 -12 l72 -6 0 31 c0 17 -6 40 -12 51
-10 16 -10 24 0 40 6 11 12 24 12 30 0 5 -43 11 -97 13 l-98 3 98 2 97 2 0 46
0 47 -115 -5 c-63 -3 -115 -2 -115 2 0 4 -18 12 -40 19 -52 16 -68 42 -86 143
-23 133 -16 125 -136 148 -37 7 -72 18 -78 25 -13 16 -3 85 14 90 6 2 29 9 51
15 22 5 51 19 65 30 l25 20 -45 -1 c-25 0 -52 -3 -60 -7z m70 -202 c27 -14 33
-58 19 -136 -15 -83 -23 -73 -11 12 8 59 -1 114 -18 114 -5 0 -15 3 -24 6 -10
4 -24 -10 -46 -50 -33 -59 -52 -78 -25 -26 12 23 12 30 3 30 -20 0 45 59 65
59 10 1 27 -3 37 -9z m48 -41 c-3 -8 -7 -3 -11 10 -4 17 -3 21 5 13 5 -5 8
-16 6 -23z m-218 -43 c0 -2 -8 -10 -17 -17 -16 -13 -17 -12 -4 4 13 16 21 21
21 13z m5 -95 c-8 -17 -20 -31 -25 -31 -6 0 0 15 12 34 27 42 36 40 13 -3z
m-36 -55 c31 -8 82 -18 114 -22 42 -4 55 -10 48 -17 -8 -8 -42 -4 -118 13 -60
13 -116 24 -125 24 -9 0 -14 4 -12 8 7 11 28 10 93 -6z m-118 -33 c-12 -20
-14 -14 -5 12 4 9 9 14 11 11 3 -2 0 -13 -6 -23z m712 -30 c-13 -2 -33 -2 -45
0 -13 2 -3 4 22 4 25 0 35 -2 23 -4z m-503 -75 c0 -10 -36 7 -45 22 -4 6 5 5
19 -2 14 -6 26 -15 26 -20z m473 25 c-18 -2 -48 -2 -65 0 -18 2 -4 4 32 4 36
0 50 -2 33 -4z m-556 -48 c23 -19 49 -35 58 -35 31 0 63 -47 89 -130 15 -46
25 -85 22 -87 -2 -2 -14 29 -26 69 -24 80 -46 128 -59 128 -15 0 -31 -51 -31
-98 l0 -47 -23 26 c-12 15 -40 34 -62 43 -38 16 -95 62 -95 77 0 4 8 6 17 5 9
0 22 8 28 20 8 17 15 19 34 12 34 -12 38 -2 11 27 -35 37 -10 30 37 -10z m93
-10 c0 -8 -7 -15 -15 -15 -8 0 -15 5 -15 11 0 5 5 7 10 4 6 -3 10 -1 10 4 0 6
2 11 5 11 3 0 5 -7 5 -15z m264 0 c-4 -8 -10 -15 -15 -15 -4 0 -6 7 -3 15 4 8
10 15 15 15 4 0 6 -7 3 -15z m51 -35 c-16 -4 -43 -8 -60 -9 -23 0 -26 2 -15 9
8 5 35 9 60 9 41 -1 42 -2 15 -9z m52 -43 c16 -16 12 -17 -67 -17 -47 0 -96 3
-109 7 -23 6 -23 7 10 19 47 18 145 12 166 -9z m-336 -147 c4 -34 3 -73 -1
-88 -5 -15 -9 -20 -9 -12 -1 13 -2 13 -11 0 -21 -33 -30 42 -16 134 10 64 27
48 37 -34z m462 -347 c-13 -2 -35 -2 -50 0 -16 2 -5 4 22 4 28 0 40 -2 28 -4z"/>
<path d="M42 2343 c11 -14 178 -15 178 -2 0 4 -42 9 -94 11 -74 2 -92 0 -84
-9z"/>
<path d="M2794 2352 c-5 -4 -18 -18 -29 -32 -11 -14 -13 -19 -5 -12 19 16 30
15 30 -3 0 -16 39 -137 46 -144 2 -2 4 37 4 87 0 78 -3 93 -18 101 -10 5 -22
7 -28 3z"/>
<path d="M3668 2353 c18 -2 45 -2 60 0 15 2 0 4 -33 4 -33 0 -45 -2 -27 -4z"/>
<path d="M3782 2297 l-21 -22 40 -2 c21 0 39 3 39 8 0 5 -7 9 -16 9 -8 0 -13
4 -9 9 12 21 -13 19 -33 -2z"/>
<path d="M3801 2232 c-7 -13 -24 -18 -73 -20 -34 -2 -72 -9 -84 -17 -12 -7
-39 -16 -60 -20 -21 -3 -52 -9 -68 -12 l-29 -5 6 -72 c3 -39 11 -89 19 -111
12 -38 15 -40 58 -42 42 -1 39 1 -16 12 -17 4 -24 17 -33 67 -6 35 -14 75 -17
91 -3 15 -2 27 3 27 5 0 15 -36 22 -80 8 -44 17 -83 22 -86 5 -3 9 0 9 5 0 15
37 14 43 -1 4 -9 6 -7 6 3 1 9 10 24 21 34 l21 19 -26 13 c-14 8 -25 19 -25
26 0 9 -3 8 -9 -1 -7 -11 -9 -11 -14 2 -4 9 -2 16 3 16 6 0 10 18 10 40 0 43
0 43 84 54 23 3 53 -1 74 -9 19 -8 47 -15 63 -15 27 0 29 3 29 36 0 31 -2 35
-15 24 -17 -15 -19 -7 -5 21 7 12 7 19 1 19 -6 0 -15 -8 -20 -18z"/>
<path d="M3018 2189 c-31 -23 -42 -67 -29 -119 8 -32 9 -30 10 26 1 45 6 65
18 75 10 8 14 9 10 2 -4 -6 -3 -14 3 -18 12 -7 23 17 18 39 -2 12 -8 11 -30
-5z"/>
<path d="M311 2145 c1 -29 53 -110 70 -110 28 0 18 31 -26 80 -34 37 -45 44
-44 30z"/>
<path d="M143 2133 c9 -2 23 -2 30 0 6 3 -1 5 -18 5 -16 0 -22 -2 -12 -5z"/>
<path d="M3785 2126 c-49 -13 -50 -13 -20 -21 17 -4 40 -15 53 -23 20 -13 22
-13 22 6 0 16 -5 19 -22 14 -14 -3 -19 -2 -14 6 4 7 14 12 22 12 8 0 14 5 14
10 0 6 -1 10 -2 9 -2 0 -25 -7 -53 -13z"/>
<path d="M3027 2123 c-13 -12 -7 -25 7 -14 9 8 21 8 37 2 24 -10 24 -10 -3
-10 -16 -1 -28 -5 -28 -10 0 -6 12 -6 31 -1 40 12 47 19 29 30 -17 11 -64 13
-73 3z"/>
<path d="M8 2083 c7 -3 16 -2 19 1 4 3 -2 6 -13 5 -11 0 -14 -3 -6 -6z"/>
<path d="M50 2051 c13 -25 13 -42 -1 -18 -5 9 -20 17 -32 16 -21 0 -21 -1 -2
-9 17 -7 17 -9 3 -9 -10 -1 -18 -8 -18 -17 0 -13 8 -15 35 -12 25 3 40 -1 52
-14 15 -17 14 -18 -18 -19 -19 -1 -37 -1 -42 0 -10 1 -9 -7 4 -31 10 -19 9
-20 -10 -15 -35 9 -24 -18 14 -36 38 -18 125 -23 125 -8 0 15 -49 49 -80 56
-64 14 -32 20 103 20 l141 0 8 -32 c11 -43 28 -42 28 1 0 41 -13 46 -118 46
-96 0 -86 19 11 21 l72 2 -71 10 c-59 8 -77 7 -102 -6 -29 -14 -32 -13 -50 7
-11 11 -25 31 -31 44 -6 12 -16 22 -22 22 -6 0 -6 -7 1 -19z"/>
<path d="M1210 2053 c0 -11 73 -32 130 -37 61 -5 62 -5 20 5 -25 5 -69 16 -97
23 -29 7 -53 11 -53 9z"/>
<path d="M1458 2023 c6 -2 18 -2 25 0 6 3 1 5 -13 5 -14 0 -19 -2 -12 -5z"/>
<path d="M1193 1988 c-27 -30 -40 -53 -25 -44 19 11 14 -3 -13 -38 -19 -25
-25 -45 -25 -82 1 -38 3 -45 11 -31 6 9 7 26 4 37 -7 21 24 88 50 110 9 7 25
26 36 42 20 27 20 28 1 28 -10 0 -28 -10 -39 -22z m17 -12 c0 -2 -8 -10 -17
-17 -16 -13 -17 -12 -4 4 13 16 21 21 21 13z"/>
<path d="M1253 1967 c-18 -12 -33 -26 -33 -30 0 -10 57 23 72 41 16 18 -3 13
-39 -11z"/>
<path d="M2990 1970 c-6 -11 -8 -20 -6 -20 3 0 10 9 16 20 6 11 8 20 6 20 -3
0 -10 -9 -16 -20z"/>
<path d="M2586 1944 c-4 -15 -2 -32 3 -37 8 -8 11 0 11 26 0 44 -5 47 -14 11z"/>
<path d="M2952 1947 c-6 -7 -14 -33 -17 -57 -8 -55 9 -35 24 28 10 46 9 49 -7
29z"/>
<path d="M2610 1940 c0 -5 5 -10 10 -10 6 0 10 5 10 10 0 6 -4 10 -10 10 -5 0
-10 -4 -10 -10z"/>
<path d="M3707 1931 c69 -9 78 -21 17 -22 -27 -1 -62 -5 -79 -9 l-30 -8 36 -1
c20 0 70 2 112 5 66 6 77 10 77 25 0 17 -9 19 -92 18 -78 -2 -85 -3 -41 -8z"/>
<path d="M210 1901 l-25 -7 23 -8 c26 -9 82 1 82 15 0 10 -43 10 -80 0z"/>
<path d="M1233 1875 c-15 -13 -23 -25 -17 -25 6 0 21 11 34 25 30 32 19 32
-17 0z"/>
<path d="M1156 1784 c-9 -20 -14 -39 -12 -42 3 -3 13 12 21 33 21 48 14 56 -9
9z"/>
<path d="M1185 1780 c-9 -16 -13 -30 -11 -30 3 0 12 14 21 30 9 17 13 30 11
30 -3 0 -12 -13 -21 -30z"/>
<path d="M383 1723 c4 -38 7 -86 8 -108 l2 -40 7 45 c10 55 1 170 -13 170 -6
0 -8 -25 -4 -67z"/>
<path d="M2228 1733 c23 -9 12 -20 -15 -15 -18 3 -24 1 -18 -5 86 -80 172
-149 182 -146 6 2 14 -5 18 -17 4 -12 9 -19 12 -16 11 10 -29 85 -49 91 -10 4
-25 19 -33 35 -18 35 -71 80 -93 79 -11 0 -12 -2 -4 -6z m87 -85 c16 -24 22
-38 14 -31 -15 12 -53 73 -46 73 2 0 17 -19 32 -42z"/>
<path d="M249 1673 c-13 -16 -12 -17 4 -4 9 7 17 15 17 17 0 8 -8 3 -21 -13z"/>
<path d="M30 1605 c-19 -19 -29 -35 -23 -35 15 0 73 49 73 61 0 17 -16 9 -50
-26z"/>
<path d="M210 1590 c20 -13 33 -13 25 0 -3 6 -14 10 -23 10 -15 0 -15 -2 -2
-10z"/>
<path d="M70 1560 c-8 -5 -27 -10 -42 -10 -23 0 -28 -4 -28 -25 0 -17 4 -23
15 -19 8 4 13 10 10 14 -3 4 9 13 25 20 17 7 33 17 36 21 7 11 3 11 -16 -1z"/>
<path d="M3059 1504 c71 -77 120 -123 151 -142 l25 -16 -20 23 -20 24 23 -7
c12 -4 22 -5 22 -3 0 12 -83 65 -94 61 -7 -3 -19 2 -26 11 -11 13 -10 15 6 9
26 -8 -53 64 -91 83 -25 13 -21 7 24 -43z"/>
<path d="M150 1487 c-39 -14 -66 -28 -66 -37 -1 -8 -2 -19 -3 -24 0 -5 -8 -2
-18 5 -15 13 -15 12 -4 -9 17 -32 -6 -78 -37 -75 -17 2 -22 -2 -22 -22 0 -23
2 -25 23 -14 12 7 25 17 29 23 4 6 8 -8 8 -30 0 -42 -22 -76 -35 -54 -17 27
-25 2 -25 -79 l0 -90 27 -4 28 -4 -27 -2 c-27 -1 -28 -3 -28 -61 0 -59 12 -80
23 -39 3 13 10 18 17 14 8 -5 11 3 9 27 -2 18 0 38 3 43 7 12 3 59 -8 76 -5 9
-2 10 12 4 38 -16 79 -16 99 -1 19 16 19 16 -5 7 -14 -4 -32 -6 -40 -3 -26 8
-70 55 -70 74 0 25 26 34 44 15 8 -8 38 -17 67 -21 58 -8 73 2 64 42 -5 19 -1
22 24 22 16 0 39 9 52 19 l24 20 -55 1 c-30 0 -76 1 -102 0 -51 0 -76 22 -57
51 7 12 9 11 9 -3 0 -27 17 -31 69 -13 33 11 58 28 80 55 37 46 41 64 6 26
-21 -23 -32 -26 -87 -26 -35 0 -70 4 -78 10 -23 14 -5 22 23 9 34 -15 57 -5
57 25 0 19 9 29 35 42 67 32 30 32 -65 1z m10 -37 c0 -18 -5 -30 -12 -30 -20
1 -53 29 -44 37 4 4 12 0 17 -10 12 -21 29 -13 29 14 0 10 2 19 5 19 3 0 5
-13 5 -30z m-119 -337 c13 -16 12 -17 -3 -4 -17 13 -22 21 -14 21 2 0 10 -8
17 -17z"/>
<path d="M322 1440 c0 -14 2 -19 5 -12 2 6 2 18 0 25 -3 6 -5 1 -5 -13z"/>
<path d="M197 1430 c-4 -17 -2 -21 16 -18 13 2 23 11 25 23 3 17 1 17 -7 5 -9
-12 -13 -13 -20 -2 -6 10 -10 9 -14 -8z"/>
<path d="M8 1433 c7 -3 16 -2 19 1 4 3 -2 6 -13 5 -11 0 -14 -3 -6 -6z"/>
<path d="M3048 1403 c7 -3 16 -2 19 1 4 3 -2 6 -13 5 -11 0 -14 -3 -6 -6z"/>
<path d="M8 1383 c7 -3 16 -2 19 1 4 3 -2 6 -13 5 -11 0 -14 -3 -6 -6z"/>
<path d="M331 1324 c0 -11 3 -14 6 -6 3 7 2 16 -1 19 -3 4 -6 -2 -5 -13z"/>
<path d="M369 1168 c15 -69 15 -70 24 -38 6 25 4 43 -9 72 -26 58 -32 45 -15
-34z"/>
<path d="M110 1191 c-14 -4 -20 -10 -15 -13 6 -3 21 0 35 8 27 14 20 16 -20 5z"/>
<path d="M2497 1130 c-3 -14 -8 -75 -11 -137 -5 -93 -11 -126 -36 -192 -48
-124 -159 -275 -210 -287 -14 -3 -59 -8 -100 -11 -41 -3 -78 -10 -81 -15 -3
-5 -21 -11 -40 -14 -19 -3 -40 -7 -47 -9 -7 -3 -10 -1 -7 4 6 11 -1 16 -38 25
-19 4 -26 3 -22 -3 8 -15 -18 -4 -82 32 -29 16 -53 33 -53 39 0 6 7 8 15 4 22
-8 18 2 -6 15 -17 8 -20 8 -14 -1 9 -15 -26 -5 -65 17 -14 8 -17 12 -6 8 16
-5 17 -3 6 10 -12 14 -25 19 -133 46 -27 7 -65 27 -90 48 -91 78 -147 122
-147 116 0 -4 5 -16 11 -28 9 -19 8 -19 -11 3 -26 32 -59 93 -76 144 l-14 41
6 -45 c6 -51 35 -118 71 -160 13 -16 22 -33 20 -37 -3 -5 8 -24 24 -43 16 -19
29 -30 29 -25 0 5 -12 23 -27 39 -16 17 4 1 42 -34 110 -101 237 -186 395
-264 144 -70 146 -71 226 -71 72 0 85 3 125 29 64 42 177 160 231 242 96 145
148 329 131 465 -7 53 -11 67 -16 49z m-837 -512 c0 -6 -6 -5 -15 2 -8 7 -15
14 -15 16 0 2 7 1 15 -2 8 -4 15 -11 15 -16z m580 -118 c0 -5 -10 -15 -22 -21
-23 -12 -23 -12 -4 10 21 23 26 26 26 11z"/>
<path d="M3228 1133 c7 -3 16 -2 19 1 4 3 -2 6 -13 5 -11 0 -14 -3 -6 -6z"/>
<path d="M3707 1119 c7 -7 15 -10 18 -7 3 3 -2 9 -12 12 -14 6 -15 5 -6 -5z"/>
<path d="M3175 1098 c23 -14 116 -28 109 -17 -4 7 -94 29 -117 29 -7 0 -3 -6
8 -12z"/>
<path d="M3826 1082 c-2 -4 -1 -14 5 -22 7 -12 9 -10 9 8 0 23 -5 28 -14 14z"/>
<path d="M3750 1065 c0 -3 15 -12 33 -21 22 -12 27 -19 17 -22 -37 -12 -41
-24 -18 -49 13 -14 31 -29 41 -34 15 -9 17 -4 17 45 0 57 -1 58 -62 76 -16 5
-28 7 -28 5z"/>
<path d="M2972 1044 c10 -10 20 -16 22 -13 3 3 -5 11 -17 18 -21 13 -21 12 -5
-5z"/>
<path d="M3257 1018 c13 -15 31 -18 92 -17 42 1 63 4 46 6 -55 7 -76 13 -70
23 3 4 -15 8 -39 7 -42 -2 -44 -3 -29 -19z"/>
<path d="M3709 982 c12 -23 41 -48 41 -35 0 5 -7 19 -16 31 -19 27 -39 30 -25
4z"/>
<path d="M3303 983 c9 -2 23 -2 30 0 6 3 -1 5 -18 5 -16 0 -22 -2 -12 -5z"/>
<path d="M3445 965 c56 -16 77 -19 55 -6 -8 5 -35 11 -60 15 l-45 6 50 -15z"/>
<path d="M3264 946 c-17 -8 -40 -26 -52 -41 -23 -29 -29 -26 -12 6 6 11 7 18
3 17 -4 -1 -19 4 -32 11 -14 8 -36 10 -57 7 -34 -7 -57 -26 -30 -26 29 0 46
-29 40 -69 -5 -32 -3 -41 16 -54 22 -15 22 -15 2 -26 -47 -25 -137 -4 -211 48
-45 32 -109 45 -161 33 l-45 -10 71 -1 c62 -1 77 -5 130 -37 101 -62 172 -78
228 -53 24 11 29 21 57 108 17 55 48 78 119 90 l55 9 -45 0 c-25 1 -59 -5 -76
-12z"/>
<path d="M3535 940 c11 -5 29 -8 40 -8 16 0 15 2 -5 8 -34 11 -60 11 -35 0z"/>
<path d="M3735 872 c22 -23 55 -46 73 -51 28 -9 32 -7 32 10 0 12 -4 17 -11
14 -17 -11 -57 4 -96 37 l-38 32 40 -42z"/>
<path d="M3797 903 c-4 -3 2 -13 14 -21 23 -16 34 -10 26 13 -7 15 -28 20 -40
8z"/>
<path d="M3540 880 c0 -10 32 -30 50 -30 6 0 8 5 5 10 -3 6 0 10 7 10 9 0 9 3
-2 10 -19 13 -60 13 -60 0z"/>
<path d="M2270 840 c-8 -5 -12 -12 -9 -15 4 -3 12 1 19 10 14 17 11 19 -10 5z"/>
<path d="M3369 807 c-12 -27 -4 -81 10 -72 5 3 11 -1 14 -7 6 -17 20 54 15 78
-5 28 -27 28 -39 1z"/>
<path d="M1089 803 c-4 -26 5 -69 15 -75 14 -10 18 -10 35 1 12 8 12 13 -3 35
-9 14 -23 26 -32 26 -8 0 -12 5 -9 10 3 6 4 10 1 10 -3 0 -6 -3 -7 -7z"/>
<path d="M180 780 c-17 -15 -38 -20 -79 -20 -101 0 -98 2 -100 -111 -1 -54 1
-99 4 -99 3 0 29 12 57 26 86 44 221 92 277 100 47 6 50 8 29 18 -13 6 -31 29
-41 50 -11 23 -23 36 -31 33 -7 -3 -33 -7 -57 -10 -24 -2 -36 -2 -26 0 20 5
23 33 4 33 -8 0 -24 -9 -37 -20z"/>
<path d="M2611 767 c-1 -19 -8 -30 -25 -37 -13 -5 -26 -20 -30 -36 -4 -14 -18
-43 -32 -63 -13 -19 -24 -40 -24 -45 0 -6 -11 -27 -25 -48 -14 -21 -37 -56
-51 -78 -15 -22 -31 -37 -37 -33 -6 3 -7 1 -3 -5 4 -7 0 -22 -8 -34 -41 -58 1
-77 68 -32 36 25 38 28 33 68 -3 22 -4 35 -1 29 11 -25 25 -13 46 37 11 27 24
47 29 44 13 -8 67 121 76 181 2 17 0 41 -6 55 l-10 25 0 -28z m-111 -237 c0
-5 -2 -10 -4 -10 -3 0 -8 5 -11 10 -3 6 -1 10 4 10 6 0 11 -4 11 -10z"/>
<path d="M3167 738 c-14 -18 -30 -51 -36 -73 -11 -43 -41 -334 -41 -402 0 -33
-6 -48 -27 -69 -16 -15 -19 -21 -8 -13 20 14 20 13 1 -9 -11 -12 -16 -22 -11
-22 4 0 2 -7 -5 -15 -8 -9 -17 -12 -22 -7 -10 10 -110 -8 -121 -23 -4 -5 -5
-22 -3 -37 3 -17 1 -28 -5 -28 -8 0 -8 -4 0 -13 6 -8 8 -17 4 -20 -3 -4 31 -7
76 -7 l82 0 19 44 c47 111 69 221 95 491 9 88 20 175 25 194 13 47 7 49 -23 9z
m-167 -628 c-8 -6 -26 -10 -40 -9 -22 0 -20 2 10 13 38 13 54 11 30 -4z"/>
<path d="M3591 730 c-13 -77 -43 -215 -47 -219 -10 -10 -55 -11 -72 -2 -15 10
-15 10 3 11 l20 1 -20 8 c-11 5 -20 12 -20 17 -1 15 -44 92 -55 99 -6 4 -18 1
-27 -7 -22 -18 -11 -209 14 -247 10 -14 16 -29 15 -33 -3 -11 37 -85 54 -99 8
-6 14 -19 14 -28 0 -9 5 -22 11 -28 5 -5 16 -36 23 -67 14 -58 14 -58 -15 -91
-16 -18 -29 -35 -29 -39 0 -3 27 -6 60 -6 33 0 60 4 60 10 0 6 8 10 17 10 15
0 15 1 -2 13 -17 13 -17 14 6 20 23 6 23 7 4 21 -20 15 -20 15 0 16 11 1 14 4
8 7 -18 7 -16 21 5 26 16 4 16 5 0 6 -21 1 -23 12 -6 29 7 7 8 12 2 12 -6 0
-9 13 -6 29 3 21 11 31 26 34 15 3 13 5 -8 6 -25 1 -28 3 -15 14 11 8 13 23 9
52 l-5 40 -8 -44 c-4 -24 -10 -42 -12 -39 -3 2 1 40 8 84 8 43 12 106 11 139
-2 51 -1 55 6 25 7 -27 8 -18 5 35 -4 57 -31 204 -34 185z"/>
<path d="M975 682 c-27 -15 -78 -47 -113 -70 -34 -24 -91 -56 -125 -73 -34
-16 -56 -29 -49 -29 26 0 90 33 193 101 59 38 111 69 116 69 11 1 49 30 37 30
-5 0 -31 -13 -59 -28z"/>
<path d="M920 604 c-69 -46 -146 -91 -172 -101 -27 -9 -48 -21 -48 -25 0 -14
20 -9 101 26 44 19 77 30 74 25 -8 -12 -4 -12 41 7 40 17 95 14 120 -7 8 -6
14 -26 14 -44 0 -33 -13 -45 -50 -45 -9 0 -23 -6 -29 -14 -10 -12 -4 -15 31
-21 87 -13 99 -17 115 -43 25 -39 65 -88 70 -84 11 9 156 -142 198 -206 46
-69 50 -72 88 -72 l39 0 -45 37 c-50 42 -195 196 -243 258 -53 69 -111 177
-140 260 -15 44 -31 85 -36 91 -5 6 -6 19 -2 28 3 9 5 16 3 15 -2 -1 -60 -39
-129 -85z m120 38 c0 -5 -21 -21 -47 -36 -27 -14 -58 -34 -70 -42 -13 -9 -23
-14 -23 -10 0 5 128 94 138 96 1 0 2 -4 2 -8z"/>
<path d="M2014 674 c-18 -14 -18 -14 6 -3 31 14 36 19 24 19 -6 0 -19 -7 -30
-16z"/>
<path d="M248 613 c7 -3 16 -2 19 1 4 3 -2 6 -13 5 -11 0 -14 -3 -6 -6z"/>
<path d="M380 554 c0 -9 38 -58 98 -125 33 -38 51 -66 48 -77 -2 -9 -10 -41
-16 -69 -7 -32 -17 -53 -25 -53 -14 0 -24 -16 -63 -95 -11 -22 -34 -58 -51
-79 -17 -21 -31 -43 -31 -47 0 -5 34 -9 76 -9 75 0 105 12 96 38 -2 7 2 10 12
6 9 -3 16 -2 16 4 0 5 -7 13 -16 16 -8 3 -12 10 -9 16 3 5 -1 10 -11 10 -13 0
-15 6 -10 28 3 15 13 67 22 117 21 116 26 125 65 118 41 -6 88 5 70 17 -10 6
-6 12 16 24 35 18 50 46 31 58 -7 4 -16 8 -20 8 -5 0 -69 23 -143 50 -134 50
-155 56 -155 44z"/>
<path d="M1377 473 c-36 -6 -48 -30 -33 -73 9 -27 18 -36 44 -41 29 -6 35 -3
44 17 8 18 8 35 -1 64 -6 22 -15 39 -19 39 -4 -1 -19 -4 -35 -6z"/>
<path d="M840 455 c-24 -9 -41 -10 -53 -3 -38 20 -27 -1 15 -29 62 -43 72 -48
64 -35 -4 6 2 20 13 31 11 11 16 22 13 26 -4 3 0 10 8 15 22 14 -16 11 -60 -5z"/>
<path d="M3 393 c3 -10 17 -46 32 -81 24 -59 42 -131 63 -262 9 -52 9 -53 11
-15 2 84 -40 260 -83 343 -18 34 -32 43 -23 15z"/>
<path d="M2829 363 c-12 -16 -12 -17 2 -6 9 7 20 9 24 5 5 -4 5 -1 1 6 -9 16
-11 15 -27 -5z"/>
<path d="M3740 369 c0 -5 -4 -8 -8 -5 -5 3 -9 0 -9 -7 0 -7 -6 -50 -12 -97 -7
-47 -11 -123 -9 -170 l3 -85 64 -3 c58 -3 63 -1 56 15 -55 134 -65 176 -65
268 0 57 -4 95 -10 95 -5 0 -10 -5 -10 -11z"/>
<path d="M3826 365 c4 -8 8 -15 10 -15 2 0 4 7 4 15 0 8 -4 15 -10 15 -5 0 -7
-7 -4 -15z"/>
<path d="M1636 342 c-3 -3 -6 -15 -6 -27 0 -12 -9 -30 -21 -41 -24 -22 -38
-46 -50 -86 -8 -29 -8 -29 32 -26 22 1 44 -3 47 -9 5 -9 19 -6 50 7 23 11 42
17 42 14 0 -3 10 0 21 7 15 8 18 13 10 18 -9 6 -9 14 0 33 10 22 8 30 -11 56
-13 17 -30 34 -39 38 -36 14 -70 22 -75 16z"/>
<path d="M3638 343 c6 -2 18 -2 25 0 6 3 1 5 -13 5 -14 0 -19 -2 -12 -5z"/>
<path d="M2652 298 c-64 -141 -85 -176 -115 -193 -31 -16 -34 -16 -90 5 -32
12 -106 53 -165 92 -120 79 -159 98 -199 97 l-28 -1 28 -10 c17 -6 26 -15 23
-23 -3 -8 0 -16 7 -19 7 -2 -12 -4 -41 -4 -40 1 -60 -4 -85 -22 -25 -18 -29
-19 -16 -4 32 38 33 45 2 38 -57 -13 -103 -92 -67 -118 10 -8 24 -12 31 -9 7
3 20 0 28 -7 8 -7 26 -10 40 -7 24 4 25 3 10 -14 -16 -16 -14 -20 25 -58 23
-23 48 -41 55 -41 28 0 45 13 46 34 0 13 2 16 6 6 14 -43 16 -45 22 -20 l7 24
22 -22 c21 -21 29 -22 223 -22 157 0 203 3 214 14 8 7 11 16 8 20 -3 3 13 28
35 55 23 27 42 59 42 69 0 31 -11 53 -23 45 -7 -4 -8 1 -4 13 4 12 -2 8 -16
-10 -75 -98 -99 -127 -103 -124 -5 6 31 99 62 160 29 57 45 98 39 98 -2 0 -13
-19 -23 -42z m-582 -78 c12 -7 8 -10 -14 -10 -17 0 -41 -10 -54 -22 l-25 -23
12 22 c19 37 53 51 81 33z m-123 -72 c-3 -8 -6 -5 -6 6 -1 11 2 17 5 13 3 -3
4 -12 1 -19z"/>
<path d="M2758 287 c-21 -17 -28 -32 -28 -57 l1 -35 25 29 c18 20 22 32 15 39
-8 8 -6 16 6 29 22 24 14 22 -19 -5z"/>
<path d="M765 293 c-13 -10 -11 -51 3 -65 6 -6 37 -26 69 -44 46 -27 52 -33
29 -29 -18 3 -26 1 -20 -5 5 -5 26 -11 46 -12 20 -2 34 -6 32 -9 -2 -4 15 -14
39 -24 23 -9 68 -36 100 -61 53 -41 61 -44 119 -44 l61 0 -19 22 c-13 14 -14
19 -4 14 8 -4 6 0 -5 9 -11 9 -19 20 -18 25 2 5 -3 7 -11 4 -8 -3 -17 0 -22 7
-4 8 -3 10 4 5 7 -4 12 -5 12 -2 0 3 -10 10 -21 17 -16 8 -20 8 -14 -1 6 -9 2
-9 -14 -1 -11 7 -21 14 -21 17 0 3 4 3 8 0 5 -3 9 1 9 9 0 11 -5 12 -21 3 -20
-11 -20 -10 -6 7 9 11 10 16 3 11 -7 -4 -13 -3 -13 3 0 14 -91 62 -104 54 -6
-4 -4 2 4 12 14 17 14 18 -10 5 -23 -12 -24 -12 -11 4 12 14 12 16 -4 10 -12
-5 -16 -4 -12 3 4 6 -1 10 -11 9 -9 0 -16 5 -14 12 2 10 -2 10 -20 1 -22 -12
-22 -11 -8 6 8 10 10 16 4 12 -7 -4 -14 -1 -17 6 -5 13 -106 22 -122 10z"/>
<path d="M1847 196 c-57 -57 -132 -125 -167 -150 l-62 -46 126 0 126 0 0 78
c0 84 17 133 64 190 52 61 16 32 -87 -72z"/>
<path d="M3796 145 c3 -16 14 -48 25 -70 14 -29 18 -33 14 -14 -3 15 -14 46
-25 70 -16 35 -19 38 -14 14z"/>
<path d="M1380 142 c0 -4 17 -24 37 -43 25 -22 29 -24 14 -6 -14 15 -21 27
-17 27 5 0 3 7 -4 15 -13 16 -30 20 -30 7z"/>
<path d="M3020 139 c0 -5 5 -7 10 -4 6 3 10 8 10 11 0 2 -4 4 -10 4 -5 0 -10
-5 -10 -11z"/>
<path d="M3270 10 c0 -5 21 -10 48 -9 35 0 42 3 27 9 -28 12 -75 12 -75 0z"/>
</g>
</svg>
